<?xml version="1.0" standalone="yes"?>

<svg version="1.1" viewBox="0.0 0.0 409.84514435695536 214.1548556430446" fill="none" stroke="none" stroke-linecap="square" stroke-miterlimit="10" xmlns="http://www.w3.org/2000/svg" xmlns:xlink="http://www.w3.org/1999/xlink"><clipPath id="p.0"><path d="m0 0l409.84515 0l0 214.15486l-409.84515 0l0 -214.15486z" clip-rule="nonzero"></path></clipPath><g clip-path="url(#p.0)"><path fill="#000000" fill-opacity="0.0" d="m0 0l409.84515 0l0 214.15486l-409.84515 0z" fill-rule="evenodd"></path><path fill="#d9ead3" d="m25.396326 96.92388l88.62992 0l0 88.62992l-88.62992 0z" fill-rule="evenodd"></path><path stroke="#000000" stroke-width="1.0" stroke-linejoin="round" stroke-linecap="butt" d="m25.396326 96.92388l88.62992 0l0 88.62992l-88.62992 0z" fill-rule="evenodd"></path><path fill="#f4cccc" d="m202.65617 96.92388l88.62993 0l0 88.62992l-88.62993 0z" fill-rule="evenodd"></path><path stroke="#000000" stroke-width="1.0" stroke-linejoin="round" stroke-linecap="butt" d="m202.65617 96.92388l88.62993 0l0 88.62992l-88.62993 0z" fill-rule="evenodd"></path><path fill="#cfe2f3" d="m114.026245 96.92388l88.62993 0l0 88.62992l-88.62993 0z" fill-rule="evenodd"></path><path stroke="#000000" stroke-width="1.0" stroke-linejoin="round" stroke-linecap="butt" d="m114.026245 96.92388l88.62993 0l0 88.62992l-88.62993 0z" fill-rule="evenodd"></path><path fill="#cfe2f3" d="m291.2861 96.92388l88.62991 0l0 88.62992l-88.62991 0z" fill-rule="evenodd"></path><path stroke="#000000" stroke-width="1.0" stroke-linejoin="round" stroke-linecap="butt" d="m291.2861 96.92388l88.62991 0l0 88.62992l-88.62991 0z" fill-rule="evenodd"></path><path fill="#000000" fill-opacity="0.0" d="m27.24147 98.76903l88.62992 0l0 86.77165l-88.62992 0z" fill-rule="evenodd"></path><path fill="#000000" d="m76.44705 158.24028l-17.406246 0l0 -3.03125l14.593746 -25.21875l5.46875 0l0 25.625l2.1875 0q0.96875 0 1.375 0.359375q0.40625 0.359375 0.40625 0.953125q0 0.5625 -0.40625 0.9375q-0.40625 0.375 -1.375 0.375l-2.1875 0l0 8.34375l2.1875 0q0.96875 0 1.375 0.359375q0.40625 0.359375 0.40625 0.953125q0 0.5625 -0.40625 0.9375q-0.40625 0.375 -1.375 0.375l-9.75 0q-0.96875 0 -1.375 -0.375q-0.40625 -0.375 -0.40625 -0.9375q0 -0.59375 0.40625 -0.953125q0.40625 -0.359375 1.375 -0.359375l4.90625 0l0 -8.34375zm0 -2.625l0 -22.96875l-1.375 0l-13.281246 22.96875l14.656246 0z" fill-rule="nonzero"></path><path fill="#000000" fill-opacity="0.0" d="m114.026245 97.85302l88.62993 0l0 86.771645l-88.62993 0z" fill-rule="evenodd"></path><path fill="#000000" d="m167.16933 132.91801l0 -1.1875l-18.8125 0l0 2.3125q0 0.9375 -0.359375 1.34375q-0.359375 0.40625 -0.953125 0.40625q-0.5625 0 -0.9375 -0.40625q-0.375 -0.40625 -0.375 -1.34375l0 -4.96875l24.09375 0l0 4.1875l-10.5625 33.75q-0.25 0.8125 -0.59375 1.078125q-0.34375 0.265625 -0.78125 0.265625q-0.5625 0 -0.9375 -0.375q-0.375 -0.375 -0.375 -0.875q0 -0.3125 0.1875 -0.875l10.40625 -33.3125z" fill-rule="nonzero"></path><path fill="#000000" fill-opacity="0.0" d="m202.65617 97.85302l88.62993 0l0 86.771645l-88.62993 0z" fill-rule="evenodd"></path><path fill="#000000" d="m248.268 128.54301l0 37.125l9.0 0q0.9375 0 1.34375 0.359375q0.40625 0.359375 0.40625 0.953125q0 0.5625 -0.40625 0.9375q-0.40625 0.375 -1.34375 0.375l-20.625 0q-0.9375 0 -1.34375 -0.375q-0.40625 -0.375 -0.40625 -0.9375q0 -0.59375 0.40625 -0.953125q0.40625 -0.359375 1.34375 -0.359375l9.0 0l0 -33.5l-8.5625 2.6875q-0.625 0.1875 -0.90625 0.1875q-0.46875 0 -0.859375 -0.390625q-0.390625 -0.390625 -0.390625 -0.921875q0 -0.46875 0.3125 -0.875q0.25 -0.25 1.03125 -0.53125l12.0 -3.78125z" fill-rule="nonzero"></path><path fill="#fce5cd" d="m291.2861 97.85302l88.62991 0l0 86.771645l-88.62991 0z" fill-rule="evenodd"></path><path fill="#000000" d="m346.36667 146.10551q-2.03125 3.59375 -4.828125 5.40625q-2.796875 1.8125 -5.734375 1.8125q-2.71875 0 -5.265625 -1.5625q-2.546875 -1.5625 -4.046875 -4.578125q-1.5 -3.015625 -1.5 -6.328125q0 -4.8125 2.984375 -8.765625q2.984375 -3.953125 7.984375 -3.953125q3.5625 0 6.5 2.21875q2.9375 2.21875 4.5625 6.4375q2.09375 5.40625 2.09375 12.5625q0 5.5625 -1.78125 9.25q-1.1875 2.5 -3.484375 4.84375q-2.296875 2.34375 -5.171875 3.8125q-3.9375 1.96875 -8.1875 1.96875q-2.8125 0 -4.59375 -1.0625q-0.8125 -0.5 -0.8125 -1.25q0 -0.53125 0.375 -0.890625q0.375 -0.359375 0.90625 -0.359375q0.375 0 1.09375 0.34375q1.21875 0.59375 2.8125 0.59375q6.65625 0 11.4375 -4.796875q4.78125 -4.796875 4.78125 -12.015625q0 -1.3125 -0.125 -3.6875zm-0.5 -4.375q-1.65625 -6.34375 -4.109375 -8.640625q-2.453125 -2.296875 -5.734375 -2.296875q-3.34375 0 -5.875 2.8125q-2.53125 2.8125 -2.53125 7.21875q0 4.28125 2.53125 7.078125q2.53125 2.796875 5.71875 2.796875q1.84375 0 3.640625 -1.0q1.796875 -1.0 3.390625 -3.0q1.03125 -1.34375 2.96875 -4.96875z" fill-rule="nonzero"></path><path fill="#000000" fill-opacity="0.0" d="m291.2861 10.152231l88.62991 0l0 86.77165l-88.62991 0z" fill-rule="evenodd"></path><path fill="#000000" d="m316.4116 32.708477l0 23.203125l5.625 0q0.59375 0 0.84375 0.234375q0.25 0.21875 0.25 0.578125q0 0.359375 -0.25 0.59375q-0.25 0.234375 -0.84375 0.234375l-12.890625 0q-0.578125 0 -0.84375 -0.234375q-0.25 -0.234375 -0.25 -0.59375q0 -0.359375 0.25 -0.578125q0.265625 -0.234375 0.84375 -0.234375l5.625 0l0 -20.9375l-5.34375 1.671875q-0.390625 0.125 -0.578125 0.125q-0.28125 0 -0.53125 -0.234375q-0.25 -0.25 -0.25 -0.59375q0 -0.28125 0.203125 -0.546875q0.15625 -0.15625 0.640625 -0.328125l7.5 -2.359375zm30.722656 10.5625l0 4.0625q0 5.296875 -2.515625 8.375q-1.96875 2.4375 -4.984375 2.4375q-1.4375 0 -2.71875 -0.578125q-1.28125 -0.578125 -2.1875 -1.625q-0.5625 -0.640625 -1.234375 -2.0625q-0.671875 -1.421875 -0.96875 -2.625q-0.453125 -1.671875 -0.453125 -3.921875l0 -4.0625q0 -5.3125 2.53125 -8.390625q1.96875 -2.421875 4.96875 -2.421875q1.46875 0 2.734375 0.578125q1.28125 0.5625 2.171875 1.609375q0.59375 0.65625 1.25 2.09375q0.671875 1.421875 0.984375 2.59375q0.421875 1.671875 0.421875 3.9375zm-1.640625 0.21875q0 -2.328125 -0.65625 -4.328125q-0.65625 -2.0 -1.46875 -3.1875q-0.484375 -0.6875 -1.265625 -1.171875q-1.125 -0.6875 -2.5 -0.6875q-2.765625 0 -4.328125 2.8125q-1.5625 2.8125 -1.5625 6.5625l0 3.609375q0 2.328125 0.65625 4.34375q0.65625 2.0 1.5 3.203125q0.46875 0.65625 1.25 1.140625q1.109375 0.703125 2.515625 0.703125q2.734375 0 4.296875 -2.8125q1.5625 -2.828125 1.5625 -6.578125l0 -3.609375z" fill-rule="nonzero"></path><path fill="#000000" d="m364.62253 33.036602l0 2.703125q0 3.53125 -1.671875 5.59375q-1.328125 1.609375 -3.328125 1.609375q-0.96875 0 -1.828125 -0.390625q-0.84375 -0.375 -1.4375 -1.0625q-0.375 -0.4375 -0.828125 -1.375q-0.453125 -0.953125 -0.640625 -1.75q-0.296875 -1.125 -0.296875 -2.625l0 -2.703125q0 -3.546873 1.671875 -5.593748q1.3125 -1.609375 3.328125 -1.609375q0.96875 0 1.8125 0.390625q0.84375 0.375 1.453125 1.0625q0.390625 0.4375 0.828125 1.390625q0.4375 0.953125 0.65625 1.734375q0.28125 1.109375 0.28125 2.624998zm-1.09375 0.140625q0 -1.5468731 -0.4375 -2.874998q-0.4375 -1.34375 -0.984375 -2.125q-0.328125 -0.46875 -0.84375 -0.78125q-0.734375 -0.46875 -1.671875 -0.46875q-1.828125 0 -2.875 1.875q-1.03125 1.875 -1.03125 4.374998l0 2.40625q0 1.546875 0.4375 2.890625q0.4375 1.34375 0.984375 2.140625q0.3125 0.4375 0.84375 0.765625q0.734375 0.46875 1.671875 0.46875q1.828125 0 2.859375 -1.875q1.046875 -1.890625 1.046875 -4.390625l0 -2.40625z" fill-rule="nonzero"></path><path fill="#000000" fill-opacity="0.0" d="m202.65617 8.779528l88.62993 0l0 86.77165l-88.62993 0z" fill-rule="evenodd"></path><path fill="#000000" d="m227.78166 31.335775l0 23.203123l5.625 0q0.59375 0 0.84375 0.234375q0.25 0.21875 0.25 0.578125q0 0.359375 -0.25 0.59375q-0.25 0.234375 -0.84375 0.234375l-12.890625 0q-0.578125 0 -0.84375 -0.234375q-0.25 -0.234375 -0.25 -0.59375q0 -0.359375 0.25 -0.578125q0.265625 -0.234375 0.84375 -0.234375l5.625 0l0 -20.9375l-5.34375 1.671875q-0.390625 0.125 -0.578125 0.125q-0.28125 0 -0.53125 -0.234375q-0.25 -0.25 -0.25 -0.59375q0 -0.28125 0.203125 -0.546875q0.15625 -0.15625 0.640625 -0.328125l7.5 -2.359373zm30.722672 10.562498l0 4.0625q0 5.296875 -2.5156403 8.375q-1.96875 2.4375 -4.984375 2.4375q-1.4375 0 -2.71875 -0.578125q-1.28125 -0.578125 -2.1875 -1.625q-0.5625 -0.640625 -1.234375 -2.0625q-0.671875 -1.421875 -0.96875 -2.625q-0.453125 -1.671875 -0.453125 -3.921875l0 -4.0625q0 -5.3125 2.53125 -8.390625q1.96875 -2.421873 4.96875 -2.421873q1.46875 0 2.734375 0.578125q1.28125 0.5624981 2.171875 1.6093731q0.59376526 0.65625 1.2500153 2.09375q0.671875 1.421875 0.984375 2.59375q0.421875 1.671875 0.421875 3.9375zm-1.640625 0.21875q0 -2.328125 -0.65625 -4.328125q-0.65626526 -2.0 -1.4687653 -3.1875q-0.484375 -0.6875 -1.265625 -1.171875q-1.125 -0.6875 -2.5 -0.6875q-2.765625 0 -4.328125 2.8125q-1.5625 2.8125 -1.5625 6.5625l0 3.609375q0 2.328125 0.65625 4.34375q0.65625 2.0 1.5 3.203125q0.46875 0.65625 1.25 1.140625q1.109375 0.703125 2.515625 0.703125q2.734375 0 4.296875 -2.8125q1.5625153 -2.828125 1.5625153 -6.578125l0 -3.609375z" fill-rule="nonzero"></path><path fill="#000000" d="m271.50824 24.617025l0 15.468748l3.75 0q0.390625 0 0.5625 0.15625q0.171875 0.140625 0.171875 0.390625q0 0.234375 -0.171875 0.390625q-0.171875 0.15625 -0.5625 0.15625l-8.578125 0q-0.390625 0 -0.5625 -0.15625q-0.171875 -0.15625 -0.171875 -0.390625q0 -0.25 0.171875 -0.390625q0.171875 -0.15625 0.5625 -0.15625l3.734375 0l0 -13.953123l-3.5625 1.125q-0.25 0.078125 -0.375 0.078125q-0.1875 0 -0.359375 -0.15625q-0.15625 -0.171875 -0.15625 -0.390625q0 -0.203125 0.125 -0.375q0.109375 -0.09375 0.4375 -0.21875l4.984375 -1.578125z" fill-rule="nonzero"></path><path fill="#000000" fill-opacity="0.0" d="m114.026245 10.152231l88.62993 0l0 86.77165l-88.62993 0z" fill-rule="evenodd"></path><path fill="#000000" d="m139.15175 32.708477l0 23.203125l5.625 0q0.59375 0 0.84375 0.234375q0.25 0.21875 0.25 0.578125q0 0.359375 -0.25 0.59375q-0.25 0.234375 -0.84375 0.234375l-12.890625 0q-0.578125 0 -0.84375 -0.234375q-0.25 -0.234375 -0.25 -0.59375q0 -0.359375 0.25 -0.578125q0.265625 -0.234375 0.84375 -0.234375l5.625 0l0 -20.9375l-5.34375 1.671875q-0.390625 0.125 -0.578125 0.125q-0.28125 0 -0.53125 -0.234375q-0.25 -0.25 -0.25 -0.59375q0 -0.28125 0.203125 -0.546875q0.15625 -0.15625 0.640625 -0.328125l7.5 -2.359375zm30.722656 10.5625l0 4.0625q0 5.296875 -2.515625 8.375q-1.96875 2.4375 -4.984375 2.4375q-1.4375 0 -2.71875 -0.578125q-1.28125 -0.578125 -2.1875 -1.625q-0.5625 -0.640625 -1.234375 -2.0625q-0.671875 -1.421875 -0.96875 -2.625q-0.453125 -1.671875 -0.453125 -3.921875l0 -4.0625q0 -5.3125 2.53125 -8.390625q1.96875 -2.421875 4.96875 -2.421875q1.46875 0 2.734375 0.578125q1.28125 0.5625 2.171875 1.609375q0.59375 0.65625 1.25 2.09375q0.671875 1.421875 0.984375 2.59375q0.421875 1.671875 0.421875 3.9375zm-1.640625 0.21875q0 -2.328125 -0.65625 -4.328125q-0.65625 -2.0 -1.46875 -3.1875q-0.484375 -0.6875 -1.265625 -1.171875q-1.125 -0.6875 -2.5 -0.6875q-2.765625 0 -4.328125 2.8125q-1.5625 2.8125 -1.5625 6.5625l0 3.609375q0 2.328125 0.65625 4.34375q0.65625 2.0 1.5 3.203125q0.46875 0.65625 1.25 1.140625q1.109375 0.703125 2.515625 0.703125q2.734375 0 4.296875 -2.8125q1.5625 -2.828125 1.5625 -6.578125l0 -3.609375z" fill-rule="nonzero"></path><path fill="#000000" d="m177.64394 41.458477l8.390625 0l0 -0.421875q0 -0.390625 0.15625 -0.5625q0.15625 -0.171875 0.40625 -0.171875q0.234375 0 0.390625 0.171875q0.15625 0.171875 0.15625 0.5625l0 1.515625l-10.578125 0l0 -1.609375q3.34375 -3.0 6.484375 -6.09375q1.46875 -1.453125 2.015625 -2.125q0.546875 -0.671875 0.75 -1.1874981q0.203125 -0.515625 0.203125 -1.03125q0 -1.40625 -1.140625 -2.484375q-1.125 -1.09375 -2.71875 -1.09375q-1.4375 0 -2.546875 0.828125q-1.09375 0.8125 -1.421875 2.03125q-0.078125 0.3125 -0.203125 0.40625q-0.15625 0.125 -0.359375 0.125q-0.21875 0 -0.375 -0.140625q-0.140625 -0.15625 -0.140625 -0.375q0 -0.609375 0.671875 -1.671875q0.6875 -1.078125 1.890625 -1.6875q1.203125 -0.609375 2.46875 -0.609375q2.046875 0 3.515625 1.421875q1.46875 1.40625 1.46875 3.203125q0 0.75 -0.25 1.390625q-0.25 0.6249981 -0.84375 1.3749981q-0.578125 0.75 -2.125 2.265625q-3.84375 3.796875 -6.265625 5.890625l0 0.078125z" fill-rule="nonzero"></path><path fill="#000000" fill-opacity="0.0" d="m25.396326 10.152231l88.62992 0l0 86.77165l-88.62992 0z" fill-rule="evenodd"></path><path fill="#000000" d="m50.521824 32.708477l0 23.203125l5.625 0q0.59375 0 0.84375 0.234375q0.25 0.21875 0.25 0.578125q0 0.359375 -0.25 0.59375q-0.25 0.234375 -0.84375 0.234375l-12.890625 0q-0.578125 0 -0.84375 -0.234375q-0.25 -0.234375 -0.25 -0.59375q0 -0.359375 0.25 -0.578125q0.265625 -0.234375 0.84375 -0.234375l5.625 0l0 -20.9375l-5.34375 1.671875q-0.390625 0.125 -0.578125 0.125q-0.28125 0 -0.53125 -0.234375q-0.25 -0.25 -0.25 -0.59375q0 -0.28125 0.203125 -0.546875q0.15625 -0.15625 0.640625 -0.328125l7.5 -2.359375zm30.72266 10.5625l0 4.0625q0 5.296875 -2.515625 8.375q-1.96875 2.4375 -4.984375 2.4375q-1.4375 0 -2.71875 -0.578125q-1.28125 -0.578125 -2.1875 -1.625q-0.5625 -0.640625 -1.234375 -2.0625q-0.671875 -1.421875 -0.96875 -2.625q-0.453125 -1.671875 -0.453125 -3.921875l0 -4.0625q0 -5.3125 2.53125 -8.390625q1.96875 -2.421875 4.96875 -2.421875q1.46875 0 2.734375 0.578125q1.28125 0.5625 2.171875 1.609375q0.59375 0.65625 1.25 2.09375q0.671875 1.421875 0.984375 2.59375q0.421875 1.671875 0.421875 3.9375zm-1.640625 0.21875q0 -2.328125 -0.65625 -4.328125q-0.65625 -2.0 -1.46875 -3.1875q-0.484375 -0.6875 -1.265625 -1.171875q-1.125 -0.6875 -2.5 -0.6875q-2.765625 0 -4.328125 2.8125q-1.5625 2.8125 -1.5625 6.5625l0 3.609375q0 2.328125 0.65625 4.34375q0.65625 2.0 1.5 3.203125q0.46875 0.65625 1.25 1.140625q1.109375 0.703125 2.515625 0.703125q2.734375 0 4.296875 -2.8125q1.5625 -2.828125 1.5625 -6.578125l0 -3.609375z" fill-rule="nonzero"></path><path fill="#000000" d="m95.96714 33.661602q1.5 0.671875 2.296875 1.859375q0.796875 1.171875 0.796875 2.453125q0 1.96875 -1.59375 3.46875q-1.59375 1.5 -4.0 1.5q-1.390625 0 -2.90625 -0.59375q-1.515625 -0.609375 -2.109375 -1.234375q-0.203125 -0.203125 -0.203125 -0.4375q0 -0.203125 0.15625 -0.359375q0.15625 -0.15625 0.359375 -0.15625q0.203125 0 0.46875 0.1875q2.015625 1.5 4.265625 1.5q1.90625 0 3.1875 -1.1875q1.28125 -1.1875 1.28125 -2.65625q0 -0.96875 -0.640625 -1.90625q-0.625 -0.9375 -1.8125 -1.46875q-1.1875 -0.546875 -2.390625 -0.546875q-0.390625 0 -0.5625 -0.140625q-0.171875 -0.15625 -0.171875 -0.40625q0 -0.234375 0.15625 -0.390625q0.171875 -0.15625 0.5 -0.15625l0.9375 0.015625q1.46875 0 2.421875 -0.890625q0.96875 -0.9062481 0.96875 -2.093748q0 -1.21875 -1.015625 -2.15625q-1.0 -0.9375 -2.609375 -0.9375q-1.140625 0 -2.09375 0.390625q-0.9375 0.390625 -1.515625 1.0625q-0.203125 0.265625 -0.3125 0.328125q-0.109375 0.046875 -0.25 0.046875q-0.234375 0 -0.390625 -0.140625q-0.15625 -0.15625 -0.15625 -0.359375q0 -0.53125 1.140625 -1.328125q1.578125 -1.09375 3.578125 -1.09375q2.0625 0 3.390625 1.25q1.328125 1.234375 1.328125 2.953125q0 1.09375 -0.640625 2.078123q-0.625 0.96875 -1.859375 1.546875z" fill-rule="nonzero"></path></g></svg>

