<?xml version="1.0" standalone="yes"?>

<svg version="1.1" viewBox="0.0 0.0 297.8083989501312 218.8713910761155" fill="none" stroke="none" stroke-linecap="square" stroke-miterlimit="10" xmlns="http://www.w3.org/2000/svg" xmlns:xlink="http://www.w3.org/1999/xlink"><clipPath id="p.0"><path d="m0 0l297.8084 0l0 218.87138l-297.8084 0l0 -218.87138z" clip-rule="nonzero"></path></clipPath><g clip-path="url(#p.0)"><path fill="#000000" fill-opacity="0.0" d="m0 0l297.8084 0l0 218.87138l-297.8084 0z" fill-rule="evenodd"></path><path fill="#6fa8dc" d="m25.11811 45.451443l0 0c0 -13.872349 11.245762 -25.118109 25.11811 -25.118109l0 0c6.6617355 0 13.050625 2.6463642 17.761185 7.356924c4.7105637 4.71056 7.356926 11.099449 7.356926 17.761185l0 0c0 13.872349 -11.245766 25.118114 -25.11811 25.118114l0 0c-13.872349 0 -25.11811 -11.245766 -25.11811 -25.118114z" fill-rule="evenodd"></path><path stroke="#6fa8dc" stroke-width="1.0" stroke-linejoin="round" stroke-linecap="butt" d="m25.11811 45.451443l0 0c0 -13.872349 11.245762 -25.118109 25.11811 -25.118109l0 0c6.6617355 0 13.050625 2.6463642 17.761185 7.356924c4.7105637 4.71056 7.356926 11.099449 7.356926 17.761185l0 0c0 13.872349 -11.245766 25.118114 -25.11811 25.118114l0 0c-13.872349 0 -25.11811 -11.245766 -25.11811 -25.118114z" fill-rule="evenodd"></path><path fill="#6fa8dc" d="m25.11811 172.6798l0 0c0 -13.87236 11.245762 -25.118118 25.11811 -25.118118l0 0c6.6617355 0 13.050625 2.6463623 17.761185 7.3569336c4.7105637 4.710556 7.356926 11.099442 7.356926 17.761185l0 0c0 13.872345 -11.245766 25.118103 -25.11811 25.118103l0 0c-13.872349 0 -25.11811 -11.245758 -25.11811 -25.118103z" fill-rule="evenodd"></path><path stroke="#6fa8dc" stroke-width="1.0" stroke-linejoin="round" stroke-linecap="butt" d="m25.11811 172.6798l0 0c0 -13.87236 11.245762 -25.118118 25.11811 -25.118118l0 0c6.6617355 0 13.050625 2.6463623 17.761185 7.3569336c4.7105637 4.710556 7.356926 11.099442 7.356926 17.761185l0 0c0 13.872345 -11.245766 25.118103 -25.11811 25.118103l0 0c-13.872349 0 -25.11811 -11.245758 -25.11811 -25.118103z" fill-rule="evenodd"></path><path fill="#6fa8dc" d="m217.83464 45.451443l0 0c0 -13.872349 11.245773 -25.118109 25.118118 -25.118109l0 0c6.661728 0 13.050629 2.6463642 17.76117 7.356924c4.7105713 4.71056 7.3569336 11.099449 7.3569336 17.761185l0 0c0 13.872349 -11.245758 25.118114 -25.118103 25.118114l0 0c-13.872345 0 -25.118118 -11.245766 -25.118118 -25.118114z" fill-rule="evenodd"></path><path stroke="#6fa8dc" stroke-width="1.0" stroke-linejoin="round" stroke-linecap="butt" d="m217.83464 45.451443l0 0c0 -13.872349 11.245773 -25.118109 25.118118 -25.118109l0 0c6.661728 0 13.050629 2.6463642 17.76117 7.356924c4.7105713 4.71056 7.3569336 11.099449 7.3569336 17.761185l0 0c0 13.872349 -11.245758 25.118114 -25.118103 25.118114l0 0c-13.872345 0 -25.118118 -11.245766 -25.118118 -25.118114z" fill-rule="evenodd"></path><path fill="#6fa8dc" d="m217.83464 172.6798l0 0c0 -13.87236 11.245773 -25.118118 25.118118 -25.118118l0 0c6.661728 0 13.050629 2.6463623 17.76117 7.3569336c4.7105713 4.710556 7.3569336 11.099442 7.3569336 17.761185l0 0c0 13.872345 -11.245758 25.118103 -25.118103 25.118103l0 0c-13.872345 0 -25.118118 -11.245758 -25.118118 -25.118103z" fill-rule="evenodd"></path><path stroke="#6fa8dc" stroke-width="1.0" stroke-linejoin="round" stroke-linecap="butt" d="m217.83464 172.6798l0 0c0 -13.87236 11.245773 -25.118118 25.118118 -25.118118l0 0c6.661728 0 13.050629 2.6463623 17.76117 7.3569336c4.7105713 4.710556 7.3569336 11.099442 7.3569336 17.761185l0 0c0 13.872345 -11.245758 25.118103 -25.118103 25.118103l0 0c-13.872345 0 -25.118118 -11.245758 -25.118118 -25.118103z" fill-rule="evenodd"></path><path fill="#000000" fill-opacity="0.0" d="m75.35433 45.451443l142.48819 0" fill-rule="evenodd"></path><path stroke="#000000" stroke-width="3.0" stroke-linejoin="round" stroke-linecap="butt" d="m75.35433 45.451443l142.48819 0" fill-rule="evenodd"></path><path fill="#000000" fill-opacity="0.0" d="m50.23622 70.56956l0 77.007866" fill-rule="evenodd"></path><path stroke="#000000" stroke-width="3.0" stroke-linejoin="round" stroke-linecap="butt" d="m50.23622 70.56956l0 77.007866" fill-rule="evenodd"></path><path fill="#000000" fill-opacity="0.0" d="m67.997406 154.91861l157.19685 -91.71654" fill-rule="evenodd"></path><path stroke="#000000" stroke-width="3.0" stroke-linejoin="round" stroke-linecap="butt" d="m67.997406 154.91861l157.19685 -91.71654" fill-rule="evenodd"></path><path fill="#000000" fill-opacity="0.0" d="m75.35433 172.6798l142.48819 0" fill-rule="evenodd"></path><path stroke="#000000" stroke-width="3.0" stroke-linejoin="round" stroke-linecap="butt" d="m75.35433 172.6798l142.48819 0" fill-rule="evenodd"></path><path fill="#000000" fill-opacity="0.0" d="m242.95276 147.56168l0 -76.97637" fill-rule="evenodd"></path><path stroke="#000000" stroke-width="3.0" stroke-linejoin="round" stroke-linecap="butt" d="m242.95276 147.56168l0 -76.97637" fill-rule="evenodd"></path><path fill="#000000" fill-opacity="0.0" d="m132.9567 12.362205l27.275589 0l0 25.82677l-27.275589 0z" fill-rule="evenodd"></path><path fill="#000000" d="m145.50357 31.829079l1.265625 0q1.203125 -0.015625 1.875 -0.625q0.6875 -0.609375 0.6875 -1.65625q0 -2.328125 -2.3125 -2.328125q-1.09375 0 -1.75 0.625q-0.65625 0.625 -0.65625 1.65625l-1.6875 0q0 -1.578125 1.15625 -2.625q1.15625 -1.046875 2.9375 -1.046875q1.875 0 2.9375 1.0q1.0625 1.0 1.0625 2.765625q0 0.859375 -0.5625 1.671875q-0.5625 0.8125 -1.515625 1.203125q1.09375 0.359375 1.6875 1.15625q0.59375 0.796875 0.59375 1.953125q0 1.796875 -1.171875 2.84375q-1.15625 1.046875 -3.03125 1.046875q-1.859375 0 -3.03125 -1.015625q-1.171875 -1.015625 -1.171875 -2.671875l1.6875 0q0 1.046875 0.6875 1.6875q0.6875 0.625 1.828125 0.625q1.21875 0 1.859375 -0.640625q0.65625 -0.640625 0.65625 -1.828125q0 -1.15625 -0.71875 -1.78125q-0.703125 -0.625 -2.046875 -0.640625l-1.265625 0l0 -1.375z" fill-rule="nonzero"></path><path fill="#000000" fill-opacity="0.0" d="m25.116798 92.51706l27.275589 0l0 25.826775l-27.275589 0z" fill-rule="evenodd"></path><path fill="#000000" d="m41.6793 113.60893q-0.53125 0.625 -1.265625 1.015625q-0.734375 0.375 -1.609375 0.375q-1.140625 0 -2.0 -0.5625q-0.84375 -0.5625 -1.3125 -1.578125q-0.46875 -1.03125 -0.46875 -2.28125q0 -1.328125 0.5 -2.390625q0.515625 -1.0625 1.4375 -1.625q0.9375 -0.578125 2.171875 -0.578125q1.96875 0 3.09375 1.484375q1.140625 1.46875 1.140625 4.0l0 0.5q0 3.875 -1.53125 5.65625q-1.53125 1.78125 -4.609375 1.828125l-0.328125 0l0 -1.421875l0.359375 0q2.078125 -0.046875 3.1875 -1.09375q1.125 -1.046875 1.234375 -3.328125zm-2.59375 0q0.84375 0 1.546875 -0.515625q0.71875 -0.53125 1.046875 -1.296875l0 -0.671875q0 -1.65625 -0.71875 -2.6875q-0.71875 -1.046875 -1.8125 -1.046875q-1.109375 0 -1.796875 0.859375q-0.671875 0.84375 -0.671875 2.234375q0 1.359375 0.65625 2.25q0.65625 0.875 1.75 0.875z" fill-rule="nonzero"></path><path fill="#000000" fill-opacity="0.0" d="m126.41863 76.35433l27.275597 0l0 25.826767l-27.275597 0z" fill-rule="evenodd"></path><path fill="#000000" d="m145.21552 103.27433l-8.6875 0l0 -1.21875l4.578125 -5.09375q1.03125 -1.15625 1.40625 -1.875q0.390625 -0.734375 0.390625 -1.5q0 -1.046875 -0.625 -1.703125q-0.625 -0.671875 -1.671875 -0.671875q-1.265625 0 -1.96875 0.71875q-0.6875 0.71875 -0.6875 1.984375l-1.6875 0q0 -1.828125 1.171875 -2.953125q1.1875 -1.140625 3.171875 -1.140625q1.84375 0 2.921875 0.984375q1.078125 0.96875 1.078125 2.578125q0 1.953125 -2.5 4.65625l-3.546875 3.859375l6.65625 0l0 1.375z" fill-rule="nonzero"></path><path fill="#000000" fill-opacity="0.0" d="m238.76509 89.821526l27.275589 0l0 25.826767l-27.275589 0z" fill-rule="evenodd"></path><path fill="#000000" d="m257.43698 104.42902l-5.5000153 12.3125l-1.765625 0l5.46875 -11.875l-7.171875 0l0 -1.390625l8.968765 0l0 0.953125z" fill-rule="nonzero"></path><path fill="#000000" fill-opacity="0.0" d="m132.95538 168.34645l27.275589 0l0 25.826782l-27.275589 0z" fill-rule="evenodd"></path><path fill="#000000" d="m150.17413 190.81332l1.84375 0l0 1.375l-1.84375 0l0 3.078125l-1.703125 0l0 -3.078125l-6.03125 0l0 -1.0l5.9375 -9.1875l1.796875 0l0 8.8125zm-5.828125 0l4.125 0l0 -6.5l-0.1875 0.359375l-3.9375 6.140625z" fill-rule="nonzero"></path><path fill="#000000" fill-opacity="0.0" d="m33.69029 26.905512l27.275589 0l0 21.637796l-27.275589 0z" fill-rule="evenodd"></path><path fill="#000000" d="m51.549664 50.35676l-5.546875 0l-1.25 3.46875l-1.8125 0l5.0625 -13.265625l1.53125 0l5.078125 13.265625l-1.796875 0l-1.265625 -3.46875zm-5.03125 -1.4375l4.515625 0l-2.265625 -6.203125l-2.25 6.203125z" fill-rule="nonzero"></path><path fill="#000000" fill-opacity="0.0" d="m36.597115 152.73753l27.275589 0l0 25.826767l-27.275589 0z" fill-rule="evenodd"></path><path fill="#000000" d="m47.14399 179.65753l0 -13.265625l3.734375 0q1.734375 0 3.0625 0.765625q1.328125 0.765625 2.046875 2.1875q0.734375 1.40625 0.734375 3.234375l0 0.84375q0 1.875 -0.71875 3.296875q-0.71875 1.40625 -2.0625 2.171875q-1.34375 0.75 -3.140625 0.765625l-3.65625 0zm1.734375 -11.828125l0 10.390625l1.84375 0q2.03125 0 3.15625 -1.25q1.125 -1.25 1.125 -3.578125l0 -0.78125q0 -2.25 -1.0625 -3.5q-1.0625 -1.265625 -3.015625 -1.28125l-2.046875 0z" fill-rule="nonzero"></path><path fill="#000000" fill-opacity="0.0" d="m229.32152 152.73753l27.275589 0l0 25.826767l-27.275589 0z" fill-rule="evenodd"></path><path fill="#000000" d="m249.6184 175.4544q-0.25 2.09375 -1.5625 3.25q-1.296875 1.140625 -3.46875 1.140625q-2.34375 0 -3.765625 -1.6875q-1.421875 -1.6875 -1.421875 -4.515625l0 -1.265625q0 -1.859375 0.65625 -3.25q0.671875 -1.40625 1.875 -2.15625q1.21875 -0.765625 2.8125 -0.765625q2.109375 0 3.390625 1.1875q1.28125 1.171875 1.484375 3.265625l-1.765625 0q-0.21875 -1.578125 -0.984375 -2.28125q-0.765625 -0.71875 -2.125 -0.71875q-1.671875 0 -2.625 1.234375q-0.953125 1.234375 -0.953125 3.53125l0 1.28125q0 2.15625 0.890625 3.4375q0.90625 1.265625 2.53125 1.265625q1.453125 0 2.234375 -0.65625q0.78125 -0.65625 1.03125 -2.296875l1.765625 0z" fill-rule="nonzero"></path><path fill="#000000" fill-opacity="0.0" d="m228.9567 26.905512l27.275574 0l0 25.826773l-27.275574 0z" fill-rule="evenodd"></path><path fill="#000000" d="m239.50357 53.82551l0 -13.265625l4.328125 0q2.15625 0 3.25 0.890625q1.09375 0.890625 1.09375 2.640625q0 0.9375 -0.53125 1.65625q-0.53125 0.703125 -1.4375 1.09375q1.0625 0.3125 1.6875 1.15625q0.625 0.84375 0.625 2.0q0 1.78125 -1.15625 2.8125q-1.15625 1.015625 -3.265625 1.015625l-4.59375 0zm1.734375 -6.203125l0 4.765625l2.890625 0q1.21875 0 1.921875 -0.625q0.71875 -0.640625 0.71875 -1.75q0 -2.390625 -2.609375 -2.390625l-2.921875 0zm0 -1.40625l2.65625 0q1.140625 0 1.828125 -0.5625q0.6875 -0.578125 0.6875 -1.5625q0 -1.09375 -0.640625 -1.59375q-0.640625 -0.5 -1.9375 -0.5l-2.59375 0l0 4.21875z" fill-rule="nonzero"></path><path fill="#000000" d="m210.93176 39.64042l9.448822 5.8110237l-9.448822 5.8110237z" fill-rule="evenodd"></path><path stroke="#000000" stroke-width="1.0" stroke-linejoin="round" stroke-linecap="butt" d="m210.93176 39.64042l9.448822 5.8110237l-9.448822 5.8110237z" fill-rule="evenodd"></path><path fill="#000000" d="m75.07902 156.49567l-11.023621 1.3385925l3.7795258 -10.4409485z" fill-rule="evenodd"></path><path stroke="#000000" stroke-width="1.0" stroke-linejoin="round" stroke-linecap="butt" d="m75.07902 156.49567l-11.023621 1.3385925l3.7795258 -10.4409485z" fill-rule="evenodd"></path><path fill="#000000" d="m44.425198 77.07218l5.8110237 -9.448822l5.8110237 9.448822z" fill-rule="evenodd"></path><path stroke="#000000" stroke-width="1.0" stroke-linejoin="round" stroke-linecap="butt" d="m44.425198 77.07218l5.8110237 -9.448822l5.8110237 9.448822z" fill-rule="evenodd"></path><path fill="#000000" d="m81.86614 178.49081l-9.448822 -5.81102l9.448822 -5.811035z" fill-rule="evenodd"></path><path stroke="#000000" stroke-width="1.0" stroke-linejoin="round" stroke-linecap="butt" d="m81.86614 178.49081l-9.448822 -5.81102l9.448822 -5.811035z" fill-rule="evenodd"></path><path fill="#000000" d="m248.40683 141.44882l-5.811035 9.448822l-5.81102 -9.448822z" fill-rule="evenodd"></path><path stroke="#000000" stroke-width="1.0" stroke-linejoin="round" stroke-linecap="butt" d="m248.40683 141.44882l-5.811035 9.448822l-5.81102 -9.448822z" fill-rule="evenodd"></path></g></svg>

