<?xml version="1.0" standalone="yes"?>

<svg version="1.1" viewBox="0.0 0.0 528.8687664041995 161.99475065616798" fill="none" stroke="none" stroke-linecap="square" stroke-miterlimit="10" xmlns="http://www.w3.org/2000/svg" xmlns:xlink="http://www.w3.org/1999/xlink"><clipPath id="p.0"><path d="m0 0l528.8688 0l0 161.99475l-528.8688 0l0 -161.99475z" clip-rule="nonzero"></path></clipPath><g clip-path="url(#p.0)"><path fill="#000000" fill-opacity="0.0" d="m0 0l528.8688 0l0 161.99475l-528.8688 0z" fill-rule="evenodd"></path><path fill="#cccccc" d="m134.1798 15.2021l213.4803 0l0 129.76378l-213.4803 0z" fill-rule="evenodd"></path><path fill="#cccccc" d="m388.18765 142.12073l-78.14172 -61.401566l78.14172 -61.401577z" fill-rule="evenodd"></path><path fill="#000000" fill-opacity="0.0" d="m9.055119 50.430447l44.409447 0l0 58.61417l-44.409447 0z" fill-rule="evenodd"></path><path fill="#000000" d="m25.914494 79.41607l3.75 -6.171875l3.375 0l-5.53125 8.359375l5.703125 8.546875l-3.34375 0l-3.90625 -6.328125l-3.90625 6.328125l-3.359375 0l5.703125 -8.546875l-5.53125 -8.359375l3.34375 0l3.703125 6.171875z" fill-rule="nonzero"></path><path fill="#000000" fill-opacity="0.0" d="m53.464565 79.73753l80.72441 0.34645844" fill-rule="evenodd"></path><path stroke="#000000" stroke-width="1.0" stroke-linejoin="round" stroke-linecap="butt" d="m53.464565 79.73753l74.72446 0.32070923" fill-rule="evenodd"></path><path fill="#000000" stroke="#000000" stroke-width="1.0" stroke-linecap="butt" d="m128.18195 81.70995l4.5451355 -1.6322403l-4.53096 -1.6711884z" fill-rule="evenodd"></path><path fill="#000000" fill-opacity="0.0" d="m388.18765 80.71916l69.763794 0.69290924" fill-rule="evenodd"></path><path stroke="#000000" stroke-width="1.0" stroke-linejoin="round" stroke-linecap="butt" d="m388.18765 80.71916l63.76407 0.63332367" fill-rule="evenodd"></path><path fill="#000000" stroke="#000000" stroke-width="1.0" stroke-linecap="butt" d="m451.93533 83.004135l4.554291 -1.6065826l-4.5214844 -1.6967239z" fill-rule="evenodd"></path><path fill="#000000" fill-opacity="0.0" d="m462.4567 50.7769l78.141754 0l0 58.614174l-78.141754 0z" fill-rule="evenodd"></path><path fill="#000000" d="m475.06607 90.4969l0 -14.671875l-2.671875 0l0 -2.234375l2.671875 0l0 -1.734375q0 -2.71875 1.453125 -4.203125q1.453125 -1.484375 4.109375 -1.484375q1.0 0 1.984375 0.265625l-0.15625 2.34375q-0.734375 -0.140625 -1.5625 -0.140625q-1.40625 0 -2.171875 0.828125q-0.765625 0.8125 -0.765625 2.34375l0 1.78125l3.609375 0l0 2.234375l-3.609375 0l0 14.671875l-2.890625 0zm9.578125 -9.234375q0 -3.53125 0.9375 -6.78125q0.953125 -3.25 2.828125 -5.90625q1.875 -2.65625 3.890625 -3.75l0.59375 1.90625q-2.28125 1.75 -3.75 5.34375q-1.453125 3.59375 -1.59375 8.046875l-0.015625 1.328125q0 6.03125 2.203125 10.46875q1.328125 2.65625 3.15625 4.15625l-0.59375 1.765625q-2.078125 -1.15625 -3.96875 -3.875q-3.6875 -5.3125 -3.6875 -12.703125zm16.71875 -1.5l3.75 -6.171875l3.375 0l-5.53125 8.359375l5.703125 8.546875l-3.34375 0l-3.90625 -6.328125l-3.90625 6.328125l-3.359375 0l5.703125 -8.546875l-5.53125 -8.359375l3.34375 0l3.703125 6.171875zm16.859344 1.65625q0 3.484375 -0.921875 6.6875q-0.90625 3.1875 -2.796875 5.890625q-1.875 2.703125 -3.9374695 3.84375l-0.609375 -1.765625q2.4062195 -1.84375 3.8593445 -5.71875q1.46875 -3.890625 1.5 -8.625l0 -0.5q0 -3.28125 -0.6875 -6.09375q-0.6875 -2.828125 -1.921875 -5.0625q-1.2187195 -2.234375 -2.7499695 -3.484375l0.609375 -1.765625q2.0624695 1.140625 3.9218445 3.8125q1.875 2.671875 2.796875 5.890625q0.9375 3.21875 0.9375 6.890625z" fill-rule="nonzero"></path><path fill="#000000" fill-opacity="0.0" d="m153.18398 57.060368l163.59056 0l0 46.047245l-163.59056 0z" fill-rule="evenodd"></path><path fill="#000000" d="m165.79335 96.780365l0 -14.671875l-2.671875 0l0 -2.234375l2.671875 0l0 -1.734375q0 -2.71875 1.453125 -4.203125q1.453125 -1.484375 4.109375 -1.484375q1.0 0 1.984375 0.265625l-0.15625 2.34375q-0.734375 -0.140625 -1.5625 -0.140625q-1.40625 0 -2.171875 0.828125q-0.765625 0.8125 -0.765625 2.34375l0 1.78125l3.609375 0l0 2.234375l-3.609375 0l0 14.671875l-2.890625 0zm20.125 -1.671875q-1.6875 1.984375 -4.953125 1.984375q-2.703125 0 -4.125 -1.5625q-1.40625 -1.578125 -1.421875 -4.65625l0 -11.0l2.890625 0l0 10.921875q0 3.84375 3.125 3.84375q3.3125 0 4.40625 -2.46875l0 -12.296875l2.890625 0l0 16.90625l-2.75 0l-0.0625 -1.671875zm9.9375 -15.234375l0.09375 2.125q1.9375 -2.4375 5.0625 -2.4375q5.359375 0 5.40625 6.046875l0 11.171875l-2.890625 0l0 -11.1875q-0.015625 -1.828125 -0.84375 -2.703125q-0.8125 -0.875 -2.546875 -0.875q-1.40625 0 -2.46875 0.75q-1.0625 0.75 -1.65625 1.96875l0 12.046875l-2.890625 0l0 -16.90625l2.734375 0zm21.703125 14.859375q1.546875 0 2.703125 -0.9375q1.15625 -0.9375 1.28125 -2.34375l2.734375 0q-0.078125 1.453125 -1.0 2.765625q-0.921875 1.3125 -2.46875 2.09375q-1.53125 0.78125 -3.25 0.78125q-3.453125 0 -5.5 -2.296875q-2.03125 -2.3125 -2.03125 -6.3125l0 -0.484375q0 -2.46875 0.90625 -4.390625q0.90625 -1.921875 2.59375 -2.984375q1.703125 -1.0625 4.015625 -1.0625q2.84375 0 4.71875 1.703125q1.890625 1.703125 2.015625 4.421875l-2.734375 0q-0.125 -1.640625 -1.25 -2.6875q-1.109375 -1.0625 -2.75 -1.0625q-2.203125 0 -3.421875 1.59375q-1.203125 1.578125 -1.203125 4.578125l0 0.546875q0 2.921875 1.203125 4.5q1.203125 1.578125 3.4375 1.578125zm13.890625 -18.953125l0 4.09375l3.15625 0l0 2.234375l-3.15625 0l0 10.484375q0 1.015625 0.421875 1.53125q0.421875 0.5 1.4375 0.5q0.5 0 1.375 -0.1875l0 2.34375q-1.140625 0.3125 -2.21875 0.3125q-1.9375 0 -2.921875 -1.171875q-0.984375 -1.171875 -0.984375 -3.328125l0 -10.484375l-3.078125 0l0 -2.234375l3.078125 0l0 -4.09375l2.890625 0zm9.671875 21.0l-2.890625 0l0 -16.90625l2.890625 0l0 16.90625zm-3.125 -21.390625q0 -0.703125 0.421875 -1.1875q0.4375 -0.484375 1.28125 -0.484375q0.84375 0 1.28125 0.484375q0.4375 0.484375 0.4375 1.1875q0 0.703125 -0.4375 1.171875q-0.4375 0.46875 -1.28125 0.46875q-0.84375 0 -1.28125 -0.46875q-0.421875 -0.46875 -0.421875 -1.171875zm6.984375 12.78125q0 -2.484375 0.96875 -4.46875q0.984375 -1.984375 2.71875 -3.0625q1.75 -1.078125 3.984375 -1.078125q3.4531097 0 5.5781097 2.390625q2.140625 2.390625 2.140625 6.359375l0 0.203125q0 2.46875 -0.953125 4.4375q-0.9375 1.953125 -2.703125 3.046875q-1.7499847 1.09375 -4.0312347 1.09375q-3.4375 0 -5.578125 -2.390625q-2.125 -2.390625 -2.125 -6.328125l0 -0.203125zm2.90625 0.34375q0 2.8125 1.296875 4.515625q1.3125 1.703125 3.5 1.703125q2.203125 0 3.4999847 -1.71875q1.296875 -1.734375 1.296875 -4.84375q0 -2.78125 -1.328125 -4.5q-1.3124847 -1.734375 -3.4999847 -1.734375q-2.140625 0 -3.453125 1.703125q-1.3125 1.703125 -1.3125 4.875zm18.843735 -8.640625l0.09375 2.125q1.9375 -2.4375 5.0625 -2.4375q5.359375 0 5.40625 6.046875l0 11.171875l-2.890625 0l0 -11.1875q-0.015625 -1.828125 -0.84375 -2.703125q-0.8125 -0.875 -2.546875 -0.875q-1.40625 0 -2.46875 0.75q-1.0625 0.75 -1.65625 1.96875l0 12.046875l-2.890625 0l0 -16.90625l2.734375 0zm24.265625 16.90625l0 -14.671875l-2.671875 0l0 -2.234375l2.671875 0l0 -1.734375q0 -2.71875 1.453125 -4.203125q1.453125 -1.484375 4.109375 -1.484375q1.0 0 1.984375 0.265625l-0.15625 2.34375q-0.734375 -0.140625 -1.5625 -0.140625q-1.40625 0 -2.171875 0.828125q-0.765625 0.8125 -0.765625 2.34375l0 1.78125l3.609375 0l0 2.234375l-3.609375 0l0 14.671875l-2.890625 0z" fill-rule="nonzero"></path></g></svg>

