<?xml version="1.0" standalone="yes"?>

<svg version="1.1" viewBox="0.0 0.0 671.5826771653543 325.8530183727034" fill="none" stroke="none" stroke-linecap="square" stroke-miterlimit="10" xmlns="http://www.w3.org/2000/svg" xmlns:xlink="http://www.w3.org/1999/xlink"><clipPath id="p.0"><path d="m0 0l671.5827 0l0 325.85303l-671.5827 0l0 -325.85303z" clip-rule="nonzero"></path></clipPath><g clip-path="url(#p.0)"><path fill="#000000" fill-opacity="0.0" d="m0 0l671.5827 0l0 325.85303l-671.5827 0z" fill-rule="evenodd"></path><path fill="#cfe2f3" d="m101.87139 118.272964l480.0 0l0 49.196854l-480.0 0z" fill-rule="evenodd"></path><path stroke="#000000" stroke-width="1.0" stroke-linejoin="round" stroke-linecap="butt" d="m101.87139 118.272964l480.0 0l0 49.196854l-480.0 0z" fill-rule="evenodd"></path><path fill="#000000" fill-opacity="0.0" d="m155.39633 118.272964l0 50.078735" fill-rule="evenodd"></path><path stroke="#000000" stroke-width="1.0" stroke-linejoin="round" stroke-linecap="butt" d="m155.39633 118.272964l0 50.078735" fill-rule="evenodd"></path><path fill="#000000" fill-opacity="0.0" d="m208.51968 118.272964l0 50.078735" fill-rule="evenodd"></path><path stroke="#000000" stroke-width="1.0" stroke-linejoin="round" stroke-linecap="butt" d="m208.51968 118.272964l0 50.078735" fill-rule="evenodd"></path><path fill="#000000" fill-opacity="0.0" d="m262.50656 118.272964l0 50.078735" fill-rule="evenodd"></path><path stroke="#000000" stroke-width="1.0" stroke-linejoin="round" stroke-linecap="butt" d="m262.50656 118.272964l0 50.078735" fill-rule="evenodd"></path><path fill="#000000" fill-opacity="0.0" d="m316.29266 118.272964l0 50.078735" fill-rule="evenodd"></path><path stroke="#000000" stroke-width="1.0" stroke-linejoin="round" stroke-linecap="butt" d="m316.29266 118.272964l0 50.078735" fill-rule="evenodd"></path><path fill="#000000" fill-opacity="0.0" d="m370.27692 118.272964l0 50.078735" fill-rule="evenodd"></path><path stroke="#000000" stroke-width="1.0" stroke-linejoin="round" stroke-linecap="butt" d="m370.27692 118.272964l0 50.078735" fill-rule="evenodd"></path><path fill="#000000" fill-opacity="0.0" d="m422.87534 117.83202l0 50.078743" fill-rule="evenodd"></path><path stroke="#000000" stroke-width="1.0" stroke-linejoin="round" stroke-linecap="butt" d="m422.87534 117.83202l0 50.078743" fill-rule="evenodd"></path><path fill="#000000" fill-opacity="0.0" d="m473.52887 118.272964l0 50.078735" fill-rule="evenodd"></path><path stroke="#000000" stroke-width="1.0" stroke-linejoin="round" stroke-linecap="butt" d="m473.52887 118.272964l0 50.078735" fill-rule="evenodd"></path><path fill="#000000" fill-opacity="0.0" d="m526.82153 117.83202l0 50.078743" fill-rule="evenodd"></path><path stroke="#000000" stroke-width="1.0" stroke-linejoin="round" stroke-linecap="butt" d="m526.82153 117.83202l0 50.078743" fill-rule="evenodd"></path><path fill="#000000" fill-opacity="0.0" d="m102.10236 167.46982l53.291344 0l0 37.13385l-53.291344 0z" fill-rule="evenodd"></path><path fill="#000000" d="m123.58055 190.18669l3.578125 3.421875q0.34375 0 0.4375 0.03125q0.09375 0.03125 0.15625 0.140625q0.078125 0.09375 0.078125 0.21875q0 0.171875 -0.125 0.28125q-0.109375 0.109375 -0.40625 0.109375l-2.5 0q-0.296875 0 -0.421875 -0.109375q-0.109375 -0.109375 -0.109375 -0.28125q0 -0.171875 0.109375 -0.28125q0.125 -0.109375 0.421875 -0.109375l1.28125 0l-3.03125 -2.90625l-3.015625 2.90625l1.296875 0q0.28125 0 0.40625 0.109375q0.125 0.109375 0.125 0.28125q0 0.171875 -0.125 0.28125q-0.125 0.109375 -0.40625 0.109375l-2.53125 0q-0.28125 0 -0.40625 -0.109375q-0.109375 -0.109375 -0.109375 -0.28125q0 -0.125 0.0625 -0.21875q0.078125 -0.109375 0.15625 -0.140625q0.09375 -0.03125 0.453125 -0.03125l3.5625 -3.421875l-3.171875 -3.046875q-0.328125 0 -0.421875 -0.03125q-0.078125 -0.03125 -0.15625 -0.140625q-0.0625 -0.109375 -0.0625 -0.21875q0 -0.171875 0.109375 -0.28125q0.125 -0.109375 0.421875 -0.109375l2.125 0q0.28125 0 0.390625 0.109375q0.125 0.109375 0.125 0.28125q0 0.171875 -0.125 0.28125q-0.109375 0.109375 -0.390625 0.109375l-0.9375 0l2.625 2.53125l2.640625 -2.53125l-0.921875 0q-0.28125 0 -0.40625 -0.109375q-0.125 -0.109375 -0.125 -0.28125q0 -0.171875 0.125 -0.28125q0.125 -0.109375 0.40625 -0.109375l2.125 0q0.28125 0 0.390625 0.109375q0.125 0.109375 0.125 0.28125q0 0.109375 -0.078125 0.21875q-0.0625 0.109375 -0.15625 0.140625q-0.078125 0.03125 -0.40625 0.03125l-3.1875 3.046875zm14.44873 -2.578125l0 1.921875q0 2.515625 -1.203125 3.984375q-0.9375 1.15625 -2.359375 1.15625q-0.6875 0 -1.296875 -0.28125q-0.609375 -0.265625 -1.03125 -0.765625q-0.265625 -0.296875 -0.59375 -0.96875q-0.3125 -0.6875 -0.453125 -1.25q-0.21875 -0.796875 -0.21875 -1.875l0 -1.921875q0 -2.53125 1.203125 -3.984375q0.9375 -1.15625 2.359375 -1.15625q0.703125 0 1.296875 0.28125q0.609375 0.265625 1.03125 0.765625q0.28125 0.3125 0.59375 0.984375q0.3125 0.671875 0.46875 1.234375q0.203125 0.796875 0.203125 1.875zm-0.78125 0.09375q0 -1.09375 -0.3125 -2.046875q-0.3125 -0.953125 -0.703125 -1.515625q-0.234375 -0.328125 -0.59375 -0.5625q-0.53125 -0.328125 -1.1875 -0.328125q-1.3125 0 -2.0625 1.34375q-0.734375 1.328125 -0.734375 3.109375l0 1.71875q0 1.109375 0.3125 2.0625q0.3125 0.953125 0.703125 1.53125q0.21875 0.3125 0.59375 0.546875q0.53125 0.328125 1.203125 0.328125q1.296875 0 2.03125 -1.34375q0.75 -1.34375 0.75 -3.125l0 -1.71875z" fill-rule="nonzero"></path><path fill="#000000" fill-opacity="0.0" d="m155.22835 167.46982l53.291336 0l0 37.13385l-53.291336 0z" fill-rule="evenodd"></path><path fill="#000000" d="m176.70654 190.18669l3.578125 3.421875q0.34375 0 0.4375 0.03125q0.09375 0.03125 0.15625 0.140625q0.078125 0.09375 0.078125 0.21875q0 0.171875 -0.125 0.28125q-0.109375 0.109375 -0.40625 0.109375l-2.5 0q-0.296875 0 -0.421875 -0.109375q-0.109375 -0.109375 -0.109375 -0.28125q0 -0.171875 0.109375 -0.28125q0.125 -0.109375 0.421875 -0.109375l1.28125 0l-3.03125 -2.90625l-3.015625 2.90625l1.296875 0q0.28125 0 0.40625 0.109375q0.125 0.109375 0.125 0.28125q0 0.171875 -0.125 0.28125q-0.125 0.109375 -0.40625 0.109375l-2.53125 0q-0.28125 0 -0.40625 -0.109375q-0.109375 -0.109375 -0.109375 -0.28125q0 -0.125 0.0625 -0.21875q0.078125 -0.109375 0.15625 -0.140625q0.09375 -0.03125 0.453125 -0.03125l3.5625 -3.421875l-3.171875 -3.046875q-0.328125 0 -0.421875 -0.03125q-0.078125 -0.03125 -0.15625 -0.140625q-0.0625 -0.109375 -0.0625 -0.21875q0 -0.171875 0.109375 -0.28125q0.125 -0.109375 0.421875 -0.109375l2.125 0q0.28125 0 0.390625 0.109375q0.125 0.109375 0.125 0.28125q0 0.171875 -0.125 0.28125q-0.109375 0.109375 -0.390625 0.109375l-0.9375 0l2.625 2.53125l2.640625 -2.53125l-0.921875 0q-0.28125 0 -0.40625 -0.109375q-0.125 -0.109375 -0.125 -0.28125q0 -0.171875 0.125 -0.28125q0.125 -0.109375 0.40625 -0.109375l2.125 0q0.28125 0 0.390625 0.109375q0.125 0.109375 0.125 0.28125q0 0.109375 -0.078125 0.21875q-0.0625 0.109375 -0.15625 0.140625q-0.078125 0.03125 -0.40625 0.03125l-3.1875 3.046875zm11.261215 -7.59375l0 11.015625l2.671875 0q0.265625 0 0.390625 0.109375q0.125 0.109375 0.125 0.28125q0 0.171875 -0.125 0.28125q-0.125 0.109375 -0.390625 0.109375l-6.1249847 0q-0.28125 0 -0.40625 -0.109375q-0.125 -0.109375 -0.125 -0.28125q0 -0.171875 0.125 -0.28125q0.125 -0.109375 0.40625 -0.109375l2.671875 0l0 -9.9375l-2.546875 0.796875q-0.1875 0.046875 -0.265625 0.046875q-0.140625 0 -0.265625 -0.109375q-0.109375 -0.125 -0.109375 -0.28125q0 -0.140625 0.09375 -0.25q0.078125 -0.078125 0.3125 -0.15625l3.5624847 -1.125z" fill-rule="nonzero"></path><path fill="#000000" fill-opacity="0.0" d="m422.87665 168.3517l53.29132 0l0 37.133865l-53.29132 0z" fill-rule="evenodd"></path><path fill="#000000" d="m444.35483 191.06857l3.578125 3.421875q0.34375 0 0.4375 0.03125q0.09375 0.03125 0.15625 0.140625q0.078125 0.09375 0.078125 0.21875q0 0.171875 -0.125 0.28125q-0.109375 0.109375 -0.40625 0.109375l-2.5 0q-0.296875 0 -0.421875 -0.109375q-0.109375 -0.109375 -0.109375 -0.28125q0 -0.171875 0.109375 -0.28125q0.125 -0.109375 0.421875 -0.109375l1.28125 0l-3.03125 -2.90625l-3.015625 2.90625l1.296875 0q0.28125 0 0.40625 0.109375q0.125 0.109375 0.125 0.28125q0 0.171875 -0.125 0.28125q-0.125 0.109375 -0.40625 0.109375l-2.53125 0q-0.28125 0 -0.40625 -0.109375q-0.109375 -0.109375 -0.109375 -0.28125q0 -0.125 0.0625 -0.21875q0.078125 -0.109375 0.15625 -0.140625q0.09375 -0.03125 0.453125 -0.03125l3.5625 -3.421875l-3.171875 -3.046875q-0.328125 0 -0.421875 -0.03125q-0.078125 -0.03125 -0.15625 -0.140625q-0.0625 -0.109375 -0.0625 -0.21875q0 -0.171875 0.109375 -0.28125q0.125 -0.109375 0.421875 -0.109375l2.125 0q0.28125 0 0.390625 0.109375q0.125 0.109375 0.125 0.28125q0 0.171875 -0.125 0.28125q-0.109375 0.109375 -0.390625 0.109375l-0.9375 0l2.625 2.53125l2.640625 -2.53125l-0.921875 0q-0.28125 0 -0.40625 -0.109375q-0.125 -0.109375 -0.125 -0.28125q0 -0.171875 0.125 -0.28125q0.125 -0.109375 0.40625 -0.109375l2.125 0q0.28125 0 0.390625 0.109375q0.125 0.109375 0.125 0.28125q0 0.109375 -0.078125 0.21875q-0.0625 0.109375 -0.15625 0.140625q-0.078125 0.03125 -0.40625 0.03125l-3.1875 3.046875zm8.54248 -0.71875q0.71875 -1.078125 1.484375 -1.578125q0.765625 -0.515625 1.703125 -0.515625q1.25 0 2.203125 1.046875q0.96875 1.03125 0.96875 2.546875q0 1.390625 -0.875 2.546875q-0.875 1.15625 -2.4375 1.15625q-1.0 0 -1.875 -0.625q-0.875 -0.625 -1.390625 -1.90625q-0.609375 -1.609375 -0.609375 -3.5625q0 -1.46875 0.578125 -2.71875q0.453125 -0.984375 1.1875 -1.71875q0.75 -0.734375 1.734375 -1.203125q0.984375 -0.46875 2.140625 -0.46875q0.78125 0 1.296875 0.3125q0.21875 0.140625 0.21875 0.375q0 0.171875 -0.109375 0.28125q-0.09375 0.09375 -0.25 0.09375q-0.125 0 -0.28125 -0.09375q-0.390625 -0.1875 -0.953125 -0.1875q-1.8125 0 -3.296875 1.5625q-1.484375 1.546875 -1.484375 3.703125q0 0.296875 0.046875 0.953125zm0.171875 1.28125q0.359375 1.6875 1.109375 2.421875q0.765625 0.71875 1.796875 0.71875q1.03125 0 1.765625 -0.8125q0.75 -0.8125 0.75 -2.109375q0 -1.21875 -0.75 -2.015625q-0.734375 -0.796875 -1.671875 -0.796875q-0.90625 0 -1.734375 0.765625q-0.5625 0.515625 -1.265625 1.828125z" fill-rule="nonzero"></path><path fill="#000000" fill-opacity="0.0" d="m263.71915 167.46982l53.29135 0l0 37.13385l-53.29135 0z" fill-rule="evenodd"></path><path fill="#000000" d="m285.19736 190.18669l3.578125 3.421875q0.34375 0 0.4375 0.03125q0.09375 0.03125 0.15625 0.140625q0.078125 0.09375 0.078125 0.21875q0 0.171875 -0.125 0.28125q-0.109375 0.109375 -0.40625 0.109375l-2.5 0q-0.296875 0 -0.421875 -0.109375q-0.109375 -0.109375 -0.109375 -0.28125q0 -0.171875 0.109375 -0.28125q0.125 -0.109375 0.421875 -0.109375l1.28125 0l-3.03125 -2.90625l-3.015625 2.90625l1.296875 0q0.28125 0 0.40625 0.109375q0.125 0.109375 0.125 0.28125q0 0.171875 -0.125 0.28125q-0.125 0.109375 -0.40625 0.109375l-2.53125 0q-0.28125 0 -0.40625 -0.109375q-0.109375 -0.109375 -0.109375 -0.28125q0 -0.125 0.0625 -0.21875q0.078125 -0.109375 0.15625 -0.140625q0.09375 -0.03125 0.453125 -0.03125l3.5625 -3.421875l-3.171875 -3.046875q-0.328125 0 -0.421875 -0.03125q-0.078125 -0.03125 -0.15625 -0.140625q-0.0625 -0.109375 -0.0625 -0.21875q0 -0.171875 0.109375 -0.28125q0.125 -0.109375 0.421875 -0.109375l2.125 0q0.28125 0 0.390625 0.109375q0.125 0.109375 0.125 0.28125q0 0.171875 -0.125 0.28125q-0.109375 0.109375 -0.390625 0.109375l-0.9375 0l2.625 2.53125l2.640625 -2.53125l-0.921875 0q-0.28125 0 -0.40625 -0.109375q-0.125 -0.109375 -0.125 -0.28125q0 -0.171875 0.125 -0.28125q0.125 -0.109375 0.40625 -0.109375l2.125 0q0.28125 0 0.390625 0.109375q0.125 0.109375 0.125 0.28125q0 0.109375 -0.078125 0.21875q-0.0625 0.109375 -0.15625 0.140625q-0.078125 0.03125 -0.40625 0.03125l-3.1875 3.046875zm12.464355 -2.140625q1.078125 0.484375 1.640625 1.328125q0.578125 0.84375 0.578125 1.75q0 1.40625 -1.140625 2.484375q-1.140625 1.0625 -2.84375 1.0625q-1.0 0 -2.078125 -0.421875q-1.078125 -0.4375 -1.5 -0.875q-0.140625 -0.15625 -0.140625 -0.328125q0 -0.140625 0.09375 -0.25q0.109375 -0.109375 0.265625 -0.109375q0.140625 0 0.328125 0.140625q1.4375 1.0625 3.046875 1.0625q1.359375 0 2.265625 -0.84375q0.921875 -0.859375 0.921875 -1.890625q0 -0.703125 -0.453125 -1.359375q-0.453125 -0.671875 -1.296875 -1.0625q-0.84375 -0.390625 -1.703125 -0.390625q-0.28125 0 -0.40625 -0.09375q-0.109375 -0.109375 -0.109375 -0.28125q0 -0.171875 0.109375 -0.28125q0.109375 -0.109375 0.34375 -0.109375l0.671875 0q1.046875 0 1.71875 -0.640625q0.6875 -0.640625 0.6875 -1.484375q0 -0.875 -0.71875 -1.53125q-0.703125 -0.671875 -1.859375 -0.671875q-0.796875 0 -1.484375 0.28125q-0.671875 0.28125 -1.078125 0.75q-0.15625 0.1875 -0.234375 0.234375q-0.078125 0.046875 -0.171875 0.046875q-0.15625 0 -0.28125 -0.109375q-0.109375 -0.109375 -0.109375 -0.265625q0 -0.359375 0.8125 -0.9375q1.125 -0.78125 2.546875 -0.78125q1.484375 0 2.421875 0.890625q0.953125 0.875 0.953125 2.109375q0 0.78125 -0.453125 1.484375q-0.453125 0.6875 -1.34375 1.09375z" fill-rule="nonzero"></path><path fill="#000000" fill-opacity="0.0" d="m208.00262 167.46982l53.29135 0l0 37.13385l-53.29135 0z" fill-rule="evenodd"></path><path fill="#000000" d="m229.48082 190.18669l3.578125 3.421875q0.34375 0 0.4375 0.03125q0.09375 0.03125 0.15625 0.140625q0.078125 0.09375 0.078125 0.21875q0 0.171875 -0.125 0.28125q-0.109375 0.109375 -0.40625 0.109375l-2.5 0q-0.296875 0 -0.421875 -0.109375q-0.109375 -0.109375 -0.109375 -0.28125q0 -0.171875 0.109375 -0.28125q0.125 -0.109375 0.421875 -0.109375l1.28125 0l-3.03125 -2.90625l-3.015625 2.90625l1.296875 0q0.28125 0 0.40625 0.109375q0.125 0.109375 0.125 0.28125q0 0.171875 -0.125 0.28125q-0.125 0.109375 -0.40625 0.109375l-2.53125 0q-0.28125 0 -0.40625 -0.109375q-0.109375 -0.109375 -0.109375 -0.28125q0 -0.125 0.0625 -0.21875q0.078125 -0.109375 0.15625 -0.140625q0.09375 -0.03125 0.453125 -0.03125l3.5625 -3.421875l-3.171875 -3.046875q-0.328125 0 -0.421875 -0.03125q-0.078125 -0.03125 -0.15625 -0.140625q-0.0625 -0.109375 -0.0625 -0.21875q0 -0.171875 0.109375 -0.28125q0.125 -0.109375 0.421875 -0.109375l2.125 0q0.28125 0 0.390625 0.109375q0.125 0.109375 0.125 0.28125q0 0.171875 -0.125 0.28125q-0.109375 0.109375 -0.390625 0.109375l-0.9375 0l2.625 2.53125l2.640625 -2.53125l-0.921875 0q-0.28125 0 -0.40625 -0.109375q-0.125 -0.109375 -0.125 -0.28125q0 -0.171875 0.125 -0.28125q0.125 -0.109375 0.40625 -0.109375l2.125 0q0.28125 0 0.390625 0.109375q0.125 0.109375 0.125 0.28125q0 0.109375 -0.078125 0.21875q-0.0625 0.109375 -0.15625 0.140625q-0.078125 0.03125 -0.40625 0.03125l-3.1875 3.046875zm7.5112305 3.421875l5.984375 0l0 -0.296875q0 -0.28125 0.109375 -0.40625q0.109375 -0.125 0.296875 -0.125q0.15625 0 0.265625 0.125q0.125 0.125 0.125 0.40625l0 1.078125l-7.53125 0l0 -1.15625q2.375 -2.125 4.609375 -4.34375q1.046875 -1.015625 1.4375 -1.5q0.390625 -0.484375 0.53125 -0.84375q0.15625 -0.375 0.15625 -0.75q0 -1.0 -0.8125 -1.765625q-0.8125 -0.78125 -1.953125 -0.78125q-1.015625 0 -1.8125 0.59375q-0.78125 0.578125 -1.015625 1.453125q-0.046875 0.21875 -0.140625 0.28125q-0.109375 0.09375 -0.25 0.09375q-0.15625 0 -0.265625 -0.109375q-0.109375 -0.109375 -0.109375 -0.25q0 -0.453125 0.484375 -1.203125q0.484375 -0.765625 1.34375 -1.203125q0.859375 -0.4375 1.765625 -0.4375q1.453125 0 2.5 1.015625q1.046875 1.0 1.046875 2.28125q0 0.546875 -0.171875 1.0q-0.171875 0.4375 -0.609375 0.984375q-0.421875 0.53125 -1.515625 1.609375q-2.734375 2.703125 -4.46875 4.203125l0 0.046875z" fill-rule="nonzero"></path><path fill="#000000" fill-opacity="0.0" d="m316.29398 167.46982l53.29132 0l0 37.13385l-53.29132 0z" fill-rule="evenodd"></path><path fill="#000000" d="m337.77216 190.18669l3.578125 3.421875q0.34375 0 0.4375 0.03125q0.09375 0.03125 0.15625 0.140625q0.078125 0.09375 0.078125 0.21875q0 0.171875 -0.125 0.28125q-0.109375 0.109375 -0.40625 0.109375l-2.5 0q-0.296875 0 -0.421875 -0.109375q-0.109375 -0.109375 -0.109375 -0.28125q0 -0.171875 0.109375 -0.28125q0.125 -0.109375 0.421875 -0.109375l1.28125 0l-3.03125 -2.90625l-3.015625 2.90625l1.296875 0q0.28125 0 0.40625 0.109375q0.125 0.109375 0.125 0.28125q0 0.171875 -0.125 0.28125q-0.125 0.109375 -0.40625 0.109375l-2.53125 0q-0.28125 0 -0.40625 -0.109375q-0.109375 -0.109375 -0.109375 -0.28125q0 -0.125 0.0625 -0.21875q0.078125 -0.109375 0.15625 -0.140625q0.09375 -0.03125 0.453125 -0.03125l3.5625 -3.421875l-3.171875 -3.046875q-0.328125 0 -0.421875 -0.03125q-0.078125 -0.03125 -0.15625 -0.140625q-0.0625 -0.109375 -0.0625 -0.21875q0 -0.171875 0.109375 -0.28125q0.125 -0.109375 0.421875 -0.109375l2.125 0q0.28125 0 0.390625 0.109375q0.125 0.109375 0.125 0.28125q0 0.171875 -0.125 0.28125q-0.109375 0.109375 -0.390625 0.109375l-0.9375 0l2.625 2.53125l2.640625 -2.53125l-0.921875 0q-0.28125 0 -0.40625 -0.109375q-0.125 -0.109375 -0.125 -0.28125q0 -0.171875 0.125 -0.28125q0.125 -0.109375 0.40625 -0.109375l2.125 0q0.28125 0 0.390625 0.109375q0.125 0.109375 0.125 0.28125q0 0.109375 -0.078125 0.21875q-0.0625 0.109375 -0.15625 0.140625q-0.078125 0.03125 -0.40625 0.03125l-3.1875 3.046875zm12.32373 0.953125l-5.171875 0l0 -0.90625l4.328125 -7.484375l1.625 0l0 7.609375l0.65625 0q0.28125 0 0.40625 0.109375q0.125 0.09375 0.125 0.28125q0 0.15625 -0.125 0.28125q-0.125 0.109375 -0.40625 0.109375l-0.65625 0l0 2.46875l0.65625 0q0.28125 0 0.40625 0.109375q0.125 0.109375 0.125 0.28125q0 0.171875 -0.125 0.28125q-0.125 0.109375 -0.40625 0.109375l-2.890625 0q-0.296875 0 -0.421875 -0.109375q-0.109375 -0.109375 -0.109375 -0.28125q0 -0.171875 0.109375 -0.28125q0.125 -0.109375 0.421875 -0.109375l1.453125 0l0 -2.46875zm0 -0.78125l0 -6.828125l-0.40625 0l-3.953125 6.828125l4.359375 0z" fill-rule="nonzero"></path><path fill="#000000" fill-opacity="0.0" d="m473.53018 168.3517l53.29135 0l0 37.133865l-53.29135 0z" fill-rule="evenodd"></path><path fill="#000000" d="m495.00836 191.06857l3.578125 3.421875q0.34375 0 0.4375 0.03125q0.09375 0.03125 0.15625 0.140625q0.078125 0.09375 0.078125 0.21875q0 0.171875 -0.125 0.28125q-0.109375 0.109375 -0.40625 0.109375l-2.5 0q-0.296875 0 -0.421875 -0.109375q-0.109375 -0.109375 -0.109375 -0.28125q0 -0.171875 0.109375 -0.28125q0.125 -0.109375 0.421875 -0.109375l1.28125 0l-3.03125 -2.90625l-3.015625 2.90625l1.296875 0q0.28125 0 0.40625 0.109375q0.125 0.109375 0.125 0.28125q0 0.171875 -0.125 0.28125q-0.125 0.109375 -0.40625 0.109375l-2.53125 0q-0.28125 0 -0.40625 -0.109375q-0.109375 -0.109375 -0.109375 -0.28125q0 -0.125 0.0625 -0.21875q0.078125 -0.109375 0.15625 -0.140625q0.09375 -0.03125 0.453125 -0.03125l3.5625 -3.421875l-3.171875 -3.046875q-0.328125 0 -0.421875 -0.03125q-0.078125 -0.03125 -0.15625 -0.140625q-0.0625 -0.109375 -0.0625 -0.21875q0 -0.171875 0.109375 -0.28125q0.125 -0.109375 0.421875 -0.109375l2.125 0q0.28125 0 0.390625 0.109375q0.125 0.109375 0.125 0.28125q0 0.171875 -0.125 0.28125q-0.109375 0.109375 -0.390625 0.109375l-0.9375 0l2.625 2.53125l2.640625 -2.53125l-0.921875 0q-0.28125 0 -0.40625 -0.109375q-0.125 -0.109375 -0.125 -0.28125q0 -0.171875 0.125 -0.28125q0.125 -0.109375 0.40625 -0.109375l2.125 0q0.28125 0 0.390625 0.109375q0.125 0.109375 0.125 0.28125q0 0.109375 -0.078125 0.21875q-0.0625 0.109375 -0.15625 0.140625q-0.078125 0.03125 -0.40625 0.03125l-3.1875 3.046875zm13.495605 -6.296875l0 -0.359375l-5.59375 0l0 0.6875q0 0.28125 -0.109375 0.40625q-0.09375 0.109375 -0.28125 0.109375q-0.15625 0 -0.28125 -0.109375q-0.109375 -0.125 -0.109375 -0.40625l0 -1.46875l7.15625 0l0 1.234375l-3.140625 10.03125q-0.0625 0.234375 -0.171875 0.3125q-0.09375 0.078125 -0.234375 0.078125q-0.15625 0 -0.28125 -0.109375q-0.109375 -0.109375 -0.109375 -0.265625q0 -0.09375 0.0625 -0.25l3.09375 -9.890625z" fill-rule="nonzero"></path><path fill="#000000" fill-opacity="0.0" d="m369.5853 167.46982l53.29135 0l0 37.13385l-53.29135 0z" fill-rule="evenodd"></path><path fill="#000000" d="m391.06348 190.18669l3.578125 3.421875q0.34375 0 0.4375 0.03125q0.09375 0.03125 0.15625 0.140625q0.078125 0.09375 0.078125 0.21875q0 0.171875 -0.125 0.28125q-0.109375 0.109375 -0.40625 0.109375l-2.5 0q-0.296875 0 -0.421875 -0.109375q-0.109375 -0.109375 -0.109375 -0.28125q0 -0.171875 0.109375 -0.28125q0.125 -0.109375 0.421875 -0.109375l1.28125 0l-3.03125 -2.90625l-3.015625 2.90625l1.296875 0q0.28125 0 0.40625 0.109375q0.125 0.109375 0.125 0.28125q0 0.171875 -0.125 0.28125q-0.125 0.109375 -0.40625 0.109375l-2.53125 0q-0.28125 0 -0.40625 -0.109375q-0.109375 -0.109375 -0.109375 -0.28125q0 -0.125 0.0625 -0.21875q0.078125 -0.109375 0.15625 -0.140625q0.09375 -0.03125 0.453125 -0.03125l3.5625 -3.421875l-3.171875 -3.046875q-0.328125 0 -0.421875 -0.03125q-0.078125 -0.03125 -0.15625 -0.140625q-0.0625 -0.109375 -0.0625 -0.21875q0 -0.171875 0.109375 -0.28125q0.125 -0.109375 0.421875 -0.109375l2.125 0q0.28125 0 0.390625 0.109375q0.125 0.109375 0.125 0.28125q0 0.171875 -0.125 0.28125q-0.109375 0.109375 -0.390625 0.109375l-0.9375 0l2.625 2.53125l2.640625 -2.53125l-0.921875 0q-0.28125 0 -0.40625 -0.109375q-0.125 -0.109375 -0.125 -0.28125q0 -0.171875 0.125 -0.28125q0.125 -0.109375 0.40625 -0.109375l2.125 0q0.28125 0 0.390625 0.109375q0.125 0.109375 0.125 0.28125q0 0.109375 -0.078125 0.21875q-0.0625 0.109375 -0.15625 0.140625q-0.078125 0.03125 -0.40625 0.03125l-3.1875 3.046875zm8.714355 -6.65625l0 3.8125q0.6875 -0.28125 1.3125 -0.421875q0.640625 -0.140625 1.203125 -0.140625q1.46875 0 2.453125 1.03125q1.0 1.015625 1.0 2.703125q0 1.859375 -1.125 3.015625q-1.109375 1.140625 -2.78125 1.140625q-1.09375 0 -2.125 -0.5q-0.71875 -0.34375 -1.3125 -0.84375q-0.359375 -0.3125 -0.359375 -0.515625q0 -0.171875 0.109375 -0.28125q0.125 -0.109375 0.265625 -0.109375q0.15625 0 0.34375 0.15625q1.390625 1.3125 3.046875 1.3125q1.359375 0 2.25 -0.921875q0.890625 -0.9375 0.890625 -2.5q0 -1.3125 -0.765625 -2.109375q-0.765625 -0.8125 -1.953125 -0.8125q-1.21875 0 -2.4375 0.640625q-0.296875 0.15625 -0.421875 0.15625q-0.15625 0 -0.265625 -0.109375q-0.09375 -0.109375 -0.09375 -0.3125l0 -5.171875l5.421875 0q0.28125 0 0.40625 0.109375q0.125 0.109375 0.125 0.28125q0 0.171875 -0.125 0.28125q-0.125 0.109375 -0.40625 0.109375l-4.65625 0z" fill-rule="nonzero"></path><path fill="#000000" fill-opacity="0.0" d="m528.7664 167.46982l53.29132 0l0 37.13385l-53.29132 0z" fill-rule="evenodd"></path><path fill="#000000" d="m550.24457 190.18669l3.578125 3.421875q0.34375 0 0.4375 0.03125q0.09375 0.03125 0.15625 0.140625q0.078125 0.09375 0.078125 0.21875q0 0.171875 -0.125 0.28125q-0.109375 0.109375 -0.40625 0.109375l-2.5 0q-0.296875 0 -0.421875 -0.109375q-0.109375 -0.109375 -0.109375 -0.28125q0 -0.171875 0.109375 -0.28125q0.125 -0.109375 0.421875 -0.109375l1.28125 0l-3.03125 -2.90625l-3.015625 2.90625l1.296875 0q0.28125 0 0.40625 0.109375q0.125 0.109375 0.125 0.28125q0 0.171875 -0.125 0.28125q-0.125 0.109375 -0.40625 0.109375l-2.53125 0q-0.28125 0 -0.40625 -0.109375q-0.109375 -0.109375 -0.109375 -0.28125q0 -0.125 0.0625 -0.21875q0.078125 -0.109375 0.15625 -0.140625q0.09375 -0.03125 0.453125 -0.03125l3.5625 -3.421875l-3.171875 -3.046875q-0.328125 0 -0.421875 -0.03125q-0.078125 -0.03125 -0.15625 -0.140625q-0.0625 -0.109375 -0.0625 -0.21875q0 -0.171875 0.109375 -0.28125q0.125 -0.109375 0.421875 -0.109375l2.125 0q0.28125 0 0.390625 0.109375q0.125 0.109375 0.125 0.28125q0 0.171875 -0.125 0.28125q-0.109375 0.109375 -0.390625 0.109375l-0.9375 0l2.625 2.53125l2.640625 -2.53125l-0.921875 0q-0.28125 0 -0.40625 -0.109375q-0.125 -0.109375 -0.125 -0.28125q0 -0.171875 0.125 -0.28125q0.125 -0.109375 0.40625 -0.109375l2.125 0q0.28125 0 0.390625 0.109375q0.125 0.109375 0.125 0.28125q0 0.109375 -0.078125 0.21875q-0.0625 0.109375 -0.15625 0.140625q-0.078125 0.03125 -0.40625 0.03125l-3.1875 3.046875zm12.464355 -1.84375q0.984375 0.484375 1.46875 1.265625q0.5 0.765625 0.5 1.65625q0 1.375 -1.046875 2.390625q-1.03125 1.015625 -2.515625 1.015625q-1.484375 0 -2.53125 -1.015625q-1.03125 -1.015625 -1.03125 -2.390625q0 -0.890625 0.5 -1.65625q0.5 -0.78125 1.484375 -1.265625q-0.859375 -0.484375 -1.25 -1.015625q-0.53125 -0.75 -0.53125 -1.65625q0 -1.28125 0.984375 -2.234375q0.984375 -0.96875 2.375 -0.96875q1.40625 0 2.390625 0.96875q0.984375 0.953125 0.984375 2.234375q0 0.90625 -0.546875 1.65625q-0.375 0.53125 -1.234375 1.015625zm0.984375 -2.640625q0 -1.0 -0.75 -1.71875q-0.75 -0.734375 -1.828125 -0.734375q-1.078125 0 -1.828125 0.734375q-0.75 0.71875 -0.75 1.703125q0 0.90625 0.734375 1.59375q0.75 0.6875 1.84375 0.6875q1.09375 0 1.828125 -0.6875q0.75 -0.6875 0.75 -1.578125zm0.203125 5.578125q0 -1.03125 -0.796875 -1.78125q-0.796875 -0.765625 -1.984375 -0.765625q-1.1875 0 -1.984375 0.765625q-0.796875 0.75 -0.796875 1.765625q0 1.0625 0.796875 1.84375q0.8125 0.78125 1.984375 0.78125q1.1875 0 1.984375 -0.78125q0.796875 -0.78125 0.796875 -1.828125z" fill-rule="nonzero"></path><path fill="#000000" fill-opacity="0.0" d="m101.24147 118.91863l53.291336 0l0 47.90551l-53.291336 0z" fill-rule="evenodd"></path><path fill="#000000" d="m122.71966 141.63551l3.578125 3.421875q0.34375 0 0.4375 0.03125q0.09375 0.03125 0.15625 0.140625q0.078125 0.09375 0.078125 0.21875q0 0.171875 -0.125 0.28125q-0.109375 0.109375 -0.40625 0.109375l-2.5 0q-0.296875 0 -0.421875 -0.109375q-0.109375 -0.109375 -0.109375 -0.28125q0 -0.171875 0.109375 -0.28125q0.125 -0.109375 0.421875 -0.109375l1.28125 0l-3.03125 -2.90625l-3.015625 2.90625l1.296875 0q0.28125 0 0.40625 0.109375q0.125 0.109375 0.125 0.28125q0 0.171875 -0.125 0.28125q-0.125 0.109375 -0.40625 0.109375l-2.53125 0q-0.28125 0 -0.40625 -0.109375q-0.109375 -0.109375 -0.109375 -0.28125q0 -0.125 0.0625 -0.21875q0.078125 -0.109375 0.15625 -0.140625q0.09375 -0.03125 0.453125 -0.03125l3.5625 -3.421875l-3.171875 -3.046875q-0.328125 0 -0.421875 -0.03125q-0.078125 -0.03125 -0.15625 -0.140625q-0.0625 -0.109375 -0.0625 -0.21875q0 -0.171875 0.109375 -0.28125q0.125 -0.109375 0.421875 -0.109375l2.125 0q0.28125 0 0.390625 0.109375q0.125 0.109375 0.125 0.28125q0 0.171875 -0.125 0.28125q-0.109375 0.109375 -0.390625 0.109375l-0.9375 0l2.625 2.53125l2.640625 -2.53125l-0.921875 0q-0.28125 0 -0.40625 -0.109375q-0.125 -0.109375 -0.125 -0.28125q0 -0.171875 0.125 -0.28125q0.125 -0.109375 0.40625 -0.109375l2.125 0q0.28125 0 0.390625 0.109375q0.125 0.109375 0.125 0.28125q0 0.109375 -0.078125 0.21875q-0.0625 0.109375 -0.15625 0.140625q-0.078125 0.03125 -0.40625 0.03125l-3.1875 3.046875zm12.323723 0.953125l-5.1718597 0l0 -0.90625l4.3281097 -7.484375l1.625 0l0 7.609375l0.65625 0q0.28125 0 0.40625 0.109375q0.125 0.09375 0.125 0.28125q0 0.15625 -0.125 0.28125q-0.125 0.109375 -0.40625 0.109375l-0.65625 0l0 2.46875l0.65625 0q0.28125 0 0.40625 0.109375q0.125 0.109375 0.125 0.28125q0 0.171875 -0.125 0.28125q-0.125 0.109375 -0.40625 0.109375l-2.890625 0q-0.296875 0 -0.42185974 -0.109375q-0.109375 -0.109375 -0.109375 -0.28125q0 -0.171875 0.109375 -0.28125q0.12498474 -0.109375 0.42185974 -0.109375l1.453125 0l0 -2.46875zm0 -0.78125l0 -6.828125l-0.40625 0l-3.9531097 6.828125l4.3593597 0z" fill-rule="nonzero"></path><path fill="#000000" fill-opacity="0.0" d="m315.69553 119.56693l53.29135 0l0 47.244087l-53.29135 0z" fill-rule="evenodd"></path><path fill="#000000" d="m342.73404 134.69005l0 11.015625l2.671875 0q0.265625 0 0.390625 0.109375q0.125 0.109375 0.125 0.28125q0 0.171875 -0.125 0.28125q-0.125 0.109375 -0.390625 0.109375l-6.125 0q-0.28125 0 -0.40625 -0.109375q-0.125 -0.109375 -0.125 -0.28125q0 -0.171875 0.125 -0.28125q0.125 -0.109375 0.40625 -0.109375l2.671875 0l0 -9.9375l-2.546875 0.796875q-0.1875 0.046875 -0.265625 0.046875q-0.140625 0 -0.265625 -0.109375q-0.109375 -0.125 -0.109375 -0.28125q0 -0.140625 0.09375 -0.25q0.078125 -0.078125 0.3125 -0.15625l3.5625 -1.125z" fill-rule="nonzero"></path><path fill="#000000" fill-opacity="0.0" d="m368.26642 119.249344l53.29132 0l0 47.244095l-53.29132 0z" fill-rule="evenodd"></path><path fill="#000000" d="m391.5549 145.38809l5.984375 0l0 -0.296875q0 -0.28125 0.109375 -0.40625q0.109375 -0.125 0.296875 -0.125q0.15625 0 0.265625 0.125q0.125 0.125 0.125 0.40625l0 1.078125l-7.53125 0l0 -1.15625q2.375 -2.125 4.609375 -4.34375q1.046875 -1.015625 1.4375 -1.5q0.390625 -0.484375 0.53125 -0.84375q0.15625 -0.375 0.15625 -0.75q0 -1.0 -0.8125 -1.765625q-0.8125 -0.78125 -1.953125 -0.78125q-1.015625 0 -1.8125 0.59375q-0.78125 0.578125 -1.015625 1.453125q-0.046875 0.21875 -0.140625 0.28125q-0.109375 0.09375 -0.25 0.09375q-0.15625 0 -0.265625 -0.109375q-0.109375 -0.109375 -0.109375 -0.25q0 -0.453125 0.484375 -1.203125q0.484375 -0.765625 1.34375 -1.203125q0.859375 -0.4375 1.765625 -0.4375q1.453125 0 2.5 1.015625q1.046875 1.0 1.046875 2.28125q0 0.546875 -0.171875 1.0q-0.171875 0.4375 -0.609375 0.984375q-0.421875 0.53125 -1.515625 1.609375q-2.734375 2.703125 -4.46875 4.203125l0 0.046875z" fill-rule="nonzero"></path><path fill="#000000" fill-opacity="0.0" d="m423.22046 118.708664l50.299225 0l0 47.905502l-50.299225 0z" fill-rule="evenodd"></path><path fill="#000000" d="m449.96603 139.28491q1.078125 0.484375 1.640625 1.328125q0.578125 0.84375 0.578125 1.75q0 1.40625 -1.140625 2.484375q-1.140625 1.0625 -2.84375 1.0625q-1.0 0 -2.078125 -0.421875q-1.078125 -0.4375 -1.5 -0.875q-0.140625 -0.15625 -0.140625 -0.328125q0 -0.140625 0.09375 -0.25q0.109375 -0.109375 0.265625 -0.109375q0.140625 0 0.328125 0.140625q1.4375 1.0625 3.046875 1.0625q1.359375 0 2.265625 -0.84375q0.921875 -0.859375 0.921875 -1.890625q0 -0.703125 -0.453125 -1.359375q-0.453125 -0.671875 -1.296875 -1.0625q-0.84375 -0.390625 -1.703125 -0.390625q-0.28125 0 -0.40625 -0.09375q-0.109375 -0.109375 -0.109375 -0.28125q0 -0.171875 0.109375 -0.28125q0.109375 -0.109375 0.34375 -0.109375l0.671875 0q1.046875 0 1.71875 -0.640625q0.6875 -0.640625 0.6875 -1.484375q0 -0.875 -0.71875 -1.53125q-0.703125 -0.671875 -1.859375 -0.671875q-0.796875 0 -1.484375 0.28125q-0.671875 0.28125 -1.078125 0.75q-0.15625 0.1875 -0.234375 0.234375q-0.078125 0.046875 -0.171875 0.046875q-0.15625 0 -0.28125 -0.109375q-0.109375 -0.109375 -0.109375 -0.265625q0 -0.359375 0.8125 -0.9375q1.125 -0.78125 2.546875 -0.78125q1.484375 0 2.421875 0.890625q0.953125 0.875 0.953125 2.109375q0 0.78125 -0.453125 1.484375q-0.453125 0.6875 -1.34375 1.09375z" fill-rule="nonzero"></path><path fill="#000000" fill-opacity="0.0" d="m127.88714 118.91863c0 -12.5 53.614174 -25.082672 107.22834 -25.0c53.614166 0.08267975 107.22836 12.830711 107.22836 25.661423" fill-rule="evenodd"></path><path stroke="#000000" stroke-width="1.0" stroke-linejoin="round" stroke-linecap="butt" d="m127.88714 118.91863c0 -12.5 53.614174 -25.082672 107.22834 -25.0c53.614166 0.08267975 107.22836 12.830711 107.22836 25.661423" fill-rule="evenodd"></path><path fill="#000000" d="m344.90863 113.66508l0.7716675 10.18898l-8.803162 -5.1811066z" fill-rule="evenodd"></path><path stroke="#000000" stroke-width="1.0" stroke-linejoin="round" stroke-linecap="butt" d="m344.90863 113.66508l0.7716675 10.18898l-8.803162 -5.1811066z" fill-rule="evenodd"></path><path fill="#000000" fill-opacity="0.0" d="m575.8819 99.08399l-23.968506 28.094482" fill-rule="evenodd"></path><path stroke="#000000" stroke-width="1.0" stroke-linejoin="round" stroke-linecap="butt" d="m575.8819 99.08399l-20.07434 23.529922" fill-rule="evenodd"></path><path fill="#000000" stroke="#000000" stroke-width="1.0" stroke-linecap="butt" d="m554.551 121.54189l-1.6888428 4.5244293l4.2019653 -2.380371z" fill-rule="evenodd"></path><path fill="#000000" fill-opacity="0.0" d="m509.48557 41.855644l131.93698 0l0 57.228348l-131.93698 0z" fill-rule="evenodd"></path><path fill="#000000" d="m554.122 61.79377l0 3.765625l5.046875 0l0 -1.9375q0 -0.234375 0.078125 -0.328125q0.09375 -0.109375 0.25 -0.109375q0.140625 0 0.234375 0.109375q0.09375 0.09375 0.09375 0.328125l0 2.59375l-7.25 0q-0.234375 0 -0.34375 -0.09375q-0.09375 -0.09375 -0.09375 -0.234375q0 -0.15625 0.09375 -0.234375q0.109375 -0.09375 0.34375 -0.09375l0.890625 0l0 -7.828125l-0.890625 0q-0.234375 0 -0.34375 -0.09375q-0.09375 -0.09375 -0.09375 -0.234375q0 -0.15625 0.09375 -0.234375q0.109375 -0.09375 0.34375 -0.09375l6.90625 0l0 2.25q0 0.234375 -0.09375 0.34375q-0.09375 0.09375 -0.234375 0.09375q-0.15625 0 -0.25 -0.09375q-0.078125 -0.109375 -0.078125 -0.34375l0 -1.59375l-4.703125 0l0 3.40625l2.34375 0l0 -0.734375q0 -0.234375 0.09375 -0.328125q0.09375 -0.109375 0.25 -0.109375q0.140625 0 0.234375 0.109375q0.09375 0.09375 0.09375 0.328125l0 2.140625q0 0.234375 -0.09375 0.34375q-0.09375 0.09375 -0.234375 0.09375q-0.15625 0 -0.25 -0.09375q-0.09375 -0.109375 -0.09375 -0.34375l0 -0.75l-2.34375 0zm8.7421875 -2.34375l0 0.65625q0.84375 -0.890625 1.6875 -0.890625q0.5 0 0.875 0.265625q0.390625 0.265625 0.65625 0.8125q0.4375 -0.546875 0.875 -0.8125q0.453125 -0.265625 0.90625 -0.265625q0.71875 0 1.140625 0.453125q0.546875 0.59375 0.546875 1.296875l0 4.59375l0.5625 0q0.234375 0 0.328125 0.09375q0.109375 0.078125 0.109375 0.234375q0 0.140625 -0.109375 0.234375q-0.09375 0.09375 -0.328125 0.09375l-1.21875 0l0 -5.1875q0 -0.5 -0.3125 -0.828125q-0.296875 -0.328125 -0.6875 -0.328125q-0.359375 0 -0.765625 0.28125q-0.390625 0.265625 -0.90625 1.046875l0 4.359375l0.546875 0q0.234375 0 0.328125 0.09375q0.109375 0.078125 0.109375 0.234375q0 0.140625 -0.109375 0.234375q-0.09375 0.09375 -0.328125 0.09375l-1.203125 0l0 -5.140625q0 -0.515625 -0.3125 -0.859375q-0.3125 -0.34375 -0.6875 -0.34375q-0.359375 0 -0.703125 0.234375q-0.46875 0.3125 -1.0 1.09375l0 4.359375l0.5625 0q0.234375 0 0.328125 0.09375q0.109375 0.078125 0.109375 0.234375q0 0.140625 -0.109375 0.234375q-0.09375 0.09375 -0.328125 0.09375l-1.765625 0q-0.234375 0 -0.34375 -0.09375q-0.09375 -0.09375 -0.09375 -0.234375q0 -0.15625 0.09375 -0.234375q0.109375 -0.09375 0.34375 -0.09375l0.546875 0l0 -5.453125l-0.546875 0q-0.234375 0 -0.34375 -0.09375q-0.09375 -0.09375 -0.09375 -0.234375q0 -0.140625 0.09375 -0.234375q0.109375 -0.09375 0.34375 -0.09375l1.203125 0zm10.1171875 0l0 1.1875q0.59375 -0.703125 1.265625 -1.0625q0.671875 -0.359375 1.578125 -0.359375q0.96875 0 1.78125 0.453125q0.828125 0.453125 1.28125 1.265625q0.453125 0.796875 0.453125 1.6875q0 1.421875 -1.015625 2.421875q-1.015625 1.0 -2.484375 1.0q-1.765625 0 -2.859375 -1.421875l0 3.953125l1.59375 0q0.234375 0 0.328125 0.09375q0.109375 0.09375 0.109375 0.234375q0 0.140625 -0.109375 0.234375q-0.09375 0.09375 -0.328125 0.09375l-3.125 0q-0.234375 0 -0.34375 -0.09375q-0.09375 -0.078125 -0.09375 -0.234375q0 -0.140625 0.09375 -0.234375q0.109375 -0.09375 0.34375 -0.09375l0.875 0l0 -8.46875l-0.875 0q-0.234375 0 -0.34375 -0.09375q-0.09375 -0.09375 -0.09375 -0.234375q0 -0.140625 0.09375 -0.234375q0.109375 -0.09375 0.34375 -0.09375l1.53125 0zm5.6875 3.171875q0 -1.125 -0.828125 -1.9375q-0.8125 -0.8125 -2.0 -0.8125q-1.203125 0 -2.03125 0.8125q-0.828125 0.8125 -0.828125 1.9375q0 1.140625 0.828125 1.953125q0.828125 0.8125 2.03125 0.8125q1.171875 0 2.0 -0.8125q0.828125 -0.8125 0.828125 -1.953125zm5.0390625 -3.171875l3.5625 0q0.234375 0 0.328125 0.09375q0.109375 0.09375 0.109375 0.234375q0 0.140625 -0.109375 0.234375q-0.09375 0.09375 -0.328125 0.09375l-3.5625 0l0 4.375q0 0.5625 0.453125 0.953125q0.46875 0.375 1.34375 0.375q0.671875 0 1.4375 -0.1875q0.78125 -0.203125 1.203125 -0.453125q0.15625 -0.109375 0.265625 -0.109375q0.125 0 0.21875 0.109375q0.09375 0.09375 0.09375 0.21875q0 0.125 -0.109375 0.21875q-0.25 0.265625 -1.21875 0.578125q-0.953125 0.296875 -1.84375 0.296875q-1.140625 0 -1.828125 -0.546875q-0.671875 -0.546875 -0.671875 -1.453125l0 -4.375l-1.21875 0q-0.234375 0 -0.34375 -0.09375q-0.09375 -0.09375 -0.09375 -0.234375q0 -0.140625 0.09375 -0.234375q0.109375 -0.09375 0.34375 -0.09375l1.21875 0l0 -1.9375q0 -0.234375 0.09375 -0.328125q0.09375 -0.109375 0.234375 -0.109375q0.140625 0 0.234375 0.109375q0.09375 0.09375 0.09375 0.328125l0 1.9375zm10.9921875 6.765625l-3.046875 -6.109375l-0.1875 0q-0.234375 0 -0.34375 -0.09375q-0.09375 -0.09375 -0.09375 -0.234375q0 -0.09375 0.046875 -0.171875q0.046875 -0.09375 0.125 -0.125q0.09375 -0.03125 0.265625 -0.03125l1.796875 0q0.234375 0 0.328125 0.09375q0.109375 0.09375 0.109375 0.234375q0 0.140625 -0.109375 0.234375q-0.09375 0.09375 -0.328125 0.09375l-0.890625 0l2.6875 5.390625l2.640625 -5.390625l-0.890625 0q-0.234375 0 -0.34375 -0.09375q-0.09375 -0.09375 -0.09375 -0.234375q0 -0.140625 0.09375 -0.234375q0.109375 -0.09375 0.34375 -0.09375l1.796875 0q0.234375 0 0.328125 0.09375q0.109375 0.09375 0.109375 0.234375q0 0.109375 -0.0625 0.203125q-0.0625 0.078125 -0.140625 0.109375q-0.078125 0.015625 -0.4375 0.015625l-4.15625 8.46875l1.03125 0q0.234375 0 0.328125 0.09375q0.109375 0.09375 0.109375 0.234375q0 0.140625 -0.109375 0.234375q-0.09375 0.09375 -0.328125 0.09375l-3.78125 0q-0.234375 0 -0.34375 -0.09375q-0.09375 -0.078125 -0.09375 -0.234375q0 -0.140625 0.09375 -0.234375q0.109375 -0.09375 0.34375 -0.09375l2.046875 0l1.15625 -2.359375z" fill-rule="nonzero"></path><path fill="#000000" d="m524.45795 78.45002l0 0.65625q0.84375 -0.890625 1.6875 -0.890625q0.5 0 0.875 0.265625q0.390625 0.265625 0.65625 0.8125q0.4375 -0.546875 0.875 -0.8125q0.453125 -0.265625 0.90625 -0.265625q0.71875 0 1.140625 0.453125q0.546875 0.59375 0.546875 1.296875l0 4.59375l0.5625 0q0.234375 0 0.328125 0.09375q0.109375 0.078125 0.109375 0.234375q0 0.140625 -0.109375 0.234375q-0.09375 0.09375 -0.328125 0.09375l-1.21875 0l0 -5.1875q0 -0.5 -0.3125 -0.828125q-0.296875 -0.328125 -0.6875 -0.328125q-0.359375 0 -0.765625 0.28125q-0.390625 0.265625 -0.90625 1.046875l0 4.359375l0.546875 0q0.234375 0 0.328125 0.09375q0.109375 0.078125 0.109375 0.234375q0 0.140625 -0.109375 0.234375q-0.09375 0.09375 -0.328125 0.09375l-1.203125 0l0 -5.140625q0 -0.515625 -0.3125 -0.859375q-0.3125 -0.34375 -0.6875 -0.34375q-0.359375 0 -0.703125 0.234375q-0.46875 0.3125 -1.0 1.09375l0 4.359375l0.5625 0q0.234375 0 0.328125 0.09375q0.109375 0.078125 0.109375 0.234375q0 0.140625 -0.109375 0.234375q-0.09375 0.09375 -0.328125 0.09375l-1.765625 0q-0.234375 0 -0.34375 -0.09375q-0.09375 -0.09375 -0.09375 -0.234375q0 -0.15625 0.09375 -0.234375q0.109375 -0.09375 0.34375 -0.09375l0.546875 0l0 -5.453125l-0.546875 0q-0.234375 0 -0.34375 -0.09375q-0.09375 -0.09375 -0.09375 -0.234375q0 -0.140625 0.09375 -0.234375q0.109375 -0.09375 0.34375 -0.09375l1.203125 0zm16.148438 3.53125l-6.6875 0q0.171875 1.28125 1.0625 2.0625q0.890625 0.765625 2.21875 0.765625q0.734375 0 1.53125 -0.234375q0.8125 -0.25 1.3125 -0.640625q0.15625 -0.125 0.265625 -0.125q0.125 0 0.21875 0.109375q0.09375 0.09375 0.09375 0.21875q0 0.140625 -0.125 0.265625q-0.375 0.390625 -1.34375 0.734375q-0.953125 0.34375 -1.953125 0.34375q-1.6875 0 -2.828125 -1.109375q-1.125 -1.109375 -1.125 -2.6875q0 -1.421875 1.0625 -2.4375q1.0625 -1.03125 2.625 -1.03125q1.609375 0 2.640625 1.046875q1.046875 1.046875 1.03125 2.71875zm-0.671875 -0.65625q-0.1875 -1.09375 -1.03125 -1.765625q-0.828125 -0.6875 -1.96875 -0.6875q-1.15625 0 -1.984375 0.671875q-0.828125 0.671875 -1.03125 1.78125l6.015625 0zm3.7265625 -2.875l0 0.65625q0.84375 -0.890625 1.6875 -0.890625q0.5 0 0.875 0.265625q0.390625 0.265625 0.65625 0.8125q0.4375 -0.546875 0.875 -0.8125q0.453125 -0.265625 0.90625 -0.265625q0.71875 0 1.140625 0.453125q0.546875 0.59375 0.546875 1.296875l0 4.59375l0.5625 0q0.234375 0 0.328125 0.09375q0.109375 0.078125 0.109375 0.234375q0 0.140625 -0.109375 0.234375q-0.09375 0.09375 -0.328125 0.09375l-1.21875 0l0 -5.1875q0 -0.5 -0.3125 -0.828125q-0.296875 -0.328125 -0.6875 -0.328125q-0.359375 0 -0.765625 0.28125q-0.390625 0.265625 -0.90625 1.046875l0 4.359375l0.546875 0q0.234375 0 0.328125 0.09375q0.109375 0.078125 0.109375 0.234375q0 0.140625 -0.109375 0.234375q-0.09375 0.09375 -0.328125 0.09375l-1.203125 0l0 -5.140625q0 -0.515625 -0.3125 -0.859375q-0.3125 -0.34375 -0.6875 -0.34375q-0.359375 0 -0.703125 0.234375q-0.46875 0.3125 -1.0 1.09375l0 4.359375l0.5625 0q0.234375 0 0.328125 0.09375q0.109375 0.078125 0.109375 0.234375q0 0.140625 -0.109375 0.234375q-0.09375 0.09375 -0.328125 0.09375l-1.765625 0q-0.234375 0 -0.34375 -0.09375q-0.09375 -0.09375 -0.09375 -0.234375q0 -0.15625 0.09375 -0.234375q0.109375 -0.09375 0.34375 -0.09375l0.546875 0l0 -5.453125l-0.546875 0q-0.234375 0 -0.34375 -0.09375q-0.09375 -0.09375 -0.09375 -0.234375q0 -0.140625 0.09375 -0.234375q0.109375 -0.09375 0.34375 -0.09375l1.203125 0zm16.257812 3.390625q0 1.5 -1.078125 2.578125q-1.0625 1.0625 -2.578125 1.0625q-1.53125 0 -2.609375 -1.0625q-1.0625 -1.078125 -1.0625 -2.578125q0 -1.5 1.0625 -2.5625q1.078125 -1.0625 2.609375 -1.0625q1.515625 0 2.578125 1.0625q1.078125 1.0625 1.078125 2.5625zm-0.65625 0q0 -1.234375 -0.890625 -2.09375q-0.875 -0.875 -2.125 -0.875q-1.25 0 -2.125 0.875q-0.875 0.875 -0.875 2.09375q0 1.21875 0.875 2.09375q0.875 0.875 2.125 0.875q1.25 0 2.125 -0.859375q0.890625 -0.875 0.890625 -2.109375zm5.8046875 -3.390625l0 1.65625q1.28125 -1.15625 1.921875 -1.484375q0.640625 -0.34375 1.171875 -0.34375q0.59375 0 1.09375 0.40625q0.5 0.390625 0.5 0.59375q0 0.140625 -0.09375 0.25q-0.09375 0.09375 -0.25 0.09375q-0.078125 0 -0.140625 -0.03125q-0.046875 -0.03125 -0.1875 -0.171875q-0.28125 -0.28125 -0.484375 -0.375q-0.203125 -0.109375 -0.390625 -0.109375q-0.4375 0 -1.046875 0.34375q-0.59375 0.34375 -2.09375 1.6875l0 3.59375l2.90625 0q0.25 0 0.34375 0.09375q0.109375 0.078125 0.109375 0.234375q0 0.140625 -0.109375 0.234375q-0.09375 0.09375 -0.34375 0.09375l-5.140625 0q-0.234375 0 -0.34375 -0.09375q-0.09375 -0.09375 -0.09375 -0.234375q0 -0.125 0.09375 -0.21875q0.09375 -0.09375 0.34375 -0.09375l1.578125 0l0 -5.46875l-1.203125 0q-0.234375 0 -0.34375 -0.09375q-0.09375 -0.09375 -0.09375 -0.234375q0 -0.140625 0.09375 -0.234375q0.09375 -0.09375 0.34375 -0.09375l1.859375 0zm10.4296875 6.765625l-3.046875 -6.109375l-0.1875 0q-0.234375 0 -0.34375 -0.09375q-0.09375 -0.09375 -0.09375 -0.234375q0 -0.09375 0.046875 -0.171875q0.046875 -0.09375 0.125 -0.125q0.09375 -0.03125 0.265625 -0.03125l1.796875 0q0.234375 0 0.328125 0.09375q0.109375 0.09375 0.109375 0.234375q0 0.140625 -0.109375 0.234375q-0.09375 0.09375 -0.328125 0.09375l-0.890625 0l2.6875 5.390625l2.640625 -5.390625l-0.890625 0q-0.234375 0 -0.34375 -0.09375q-0.09375 -0.09375 -0.09375 -0.234375q0 -0.140625 0.09375 -0.234375q0.109375 -0.09375 0.34375 -0.09375l1.796875 0q0.234375 0 0.328125 0.09375q0.109375 0.09375 0.109375 0.234375q0 0.109375 -0.0625 0.203125q-0.0625 0.078125 -0.140625 0.109375q-0.078125 0.015625 -0.4375 0.015625l-4.15625 8.46875l1.03125 0q0.234375 0 0.328125 0.09375q0.109375 0.09375 0.109375 0.234375q0 0.140625 -0.109375 0.234375q-0.09375 0.09375 -0.328125 0.09375l-3.78125 0q-0.234375 0 -0.34375 -0.09375q-0.09375 -0.078125 -0.09375 -0.234375q0 -0.140625 0.09375 -0.234375q0.109375 -0.09375 0.34375 -0.09375l2.046875 0l1.15625 -2.359375zm21.90625 -6.109375l0 -0.21875q0 -0.234375 0.09375 -0.328125q0.09375 -0.109375 0.234375 -0.109375q0.140625 0 0.234375 0.109375q0.09375 0.09375 0.09375 0.328125l0 1.484375q0 0.25 -0.09375 0.359375q-0.09375 0.09375 -0.234375 0.09375q-0.140625 0 -0.234375 -0.09375q-0.078125 -0.09375 -0.09375 -0.296875q-0.046875 -0.5625 -0.734375 -1.0625q-0.6875 -0.5 -1.84375 -0.5q-1.453125 0 -2.21875 0.921875q-0.75 0.90625 -0.75 2.09375q0 1.265625 0.828125 2.09375q0.84375 0.828125 2.171875 0.828125q0.765625 0 1.546875 -0.28125q0.796875 -0.28125 1.4375 -0.90625q0.171875 -0.15625 0.296875 -0.15625q0.125 0 0.21875 0.09375q0.09375 0.09375 0.09375 0.21875q0 0.34375 -0.796875 0.859375q-1.265625 0.84375 -2.828125 0.84375q-1.59375 0 -2.609375 -1.015625q-1.015625 -1.015625 -1.015625 -2.578125q0 -1.578125 1.03125 -2.625q1.046875 -1.046875 2.640625 -1.046875q1.5 0 2.53125 0.890625zm10.4140625 2.875l-6.6875 0q0.171875 1.28125 1.0625 2.0625q0.890625 0.765625 2.21875 0.765625q0.734375 0 1.53125 -0.234375q0.8125 -0.25 1.3125 -0.640625q0.15625 -0.125 0.265625 -0.125q0.125 0 0.21875 0.109375q0.09375 0.09375 0.09375 0.21875q0 0.140625 -0.125 0.265625q-0.375 0.390625 -1.34375 0.734375q-0.953125 0.34375 -1.953125 0.34375q-1.6875 0 -2.828125 -1.109375q-1.125 -1.109375 -1.125 -2.6875q0 -1.421875 1.0625 -2.4375q1.0625 -1.03125 2.625 -1.03125q1.609375 0 2.640625 1.046875q1.046875 1.046875 1.03125 2.71875zm-0.671875 -0.65625q-0.1875 -1.09375 -1.03125 -1.765625q-0.828125 -0.6875 -1.96875 -0.6875q-1.15625 0 -1.984375 0.671875q-0.828125 0.671875 -1.03125 1.78125l6.015625 0zm7.0546875 -5.921875l0 9.15625l2.578125 0q0.234375 0 0.328125 0.09375q0.109375 0.078125 0.109375 0.234375q0 0.140625 -0.109375 0.234375q-0.09375 0.09375 -0.328125 0.09375l-5.8125 0q-0.234375 0 -0.34375 -0.09375q-0.09375 -0.09375 -0.09375 -0.234375q0 -0.15625 0.09375 -0.234375q0.109375 -0.09375 0.34375 -0.09375l2.578125 0l0 -8.484375l-1.890625 0q-0.234375 0 -0.34375 -0.09375q-0.109375 -0.09375 -0.109375 -0.25q0 -0.140625 0.09375 -0.234375q0.109375 -0.09375 0.359375 -0.09375l2.546875 0zm9.6015625 0l0 9.15625l2.578125 0q0.234375 0 0.328125 0.09375q0.109375 0.078125 0.109375 0.234375q0 0.140625 -0.109375 0.234375q-0.09375 0.09375 -0.328125 0.09375l-5.8125 0q-0.234375 0 -0.34375 -0.09375q-0.09375 -0.09375 -0.09375 -0.234375q0 -0.15625 0.09375 -0.234375q0.109375 -0.09375 0.34375 -0.09375l2.578125 0l0 -8.484375l-1.890625 0q-0.234375 0 -0.34375 -0.09375q-0.109375 -0.09375 -0.109375 -0.25q0 -0.140625 0.09375 -0.234375q0.109375 -0.09375 0.359375 -0.09375l2.546875 0z" fill-rule="nonzero"></path><path fill="#000000" fill-opacity="0.0" d="m5.1391077 167.91077l110.48819 0l0 29.102356l-110.48819 0z" fill-rule="evenodd"></path><path fill="#000000" d="m25.639107 192.27077l-2.515625 0l-1.0 -2.609375l-4.578125 0l-0.953125 2.609375l-2.453124 0l4.468749 -11.453125l2.4375 0l4.59375 11.453125zm-4.265625 -4.53125l-1.578125 -4.25l-1.546875 4.25l3.125 0zm13.0859375 4.53125l-2.046875 0l0 -1.21875q-0.5 0.703125 -1.203125 1.0625q-0.6875 0.34375 -1.390625 0.34375q-1.421875 0 -2.453125 -1.15625q-1.015625 -1.15625 -1.015625 -3.21875q0 -2.109375 0.984375 -3.203125q1.0 -1.09375 2.515625 -1.09375q1.390625 0 2.40625 1.15625l0 -4.125l2.203125 0l0 11.453125zm-5.859375 -4.328125q0 1.328125 0.359375 1.921875q0.53125 0.859375 1.484375 0.859375q0.765625 0 1.296875 -0.640625q0.53125 -0.65625 0.53125 -1.9375q0 -1.421875 -0.515625 -2.046875q-0.515625 -0.640625 -1.328125 -0.640625q-0.78125 0 -1.3125 0.625q-0.515625 0.625 -0.515625 1.859375zm15.6328125 4.328125l-2.046875 0l0 -1.21875q-0.5 0.703125 -1.203125 1.0625q-0.6875 0.34375 -1.390625 0.34375q-1.421875 0 -2.453125 -1.15625q-1.015625 -1.15625 -1.015625 -3.21875q0 -2.109375 0.984375 -3.203125q1.0 -1.09375 2.515625 -1.09375q1.390625 0 2.40625 1.15625l0 -4.125l2.203125 0l0 11.453125zm-5.859375 -4.328125q0 1.328125 0.359375 1.921875q0.53125 0.859375 1.484375 0.859375q0.765625 0 1.296875 -0.640625q0.53125 -0.65625 0.53125 -1.9375q0 -1.421875 -0.515625 -2.046875q-0.515625 -0.640625 -1.328125 -0.640625q-0.78125 0 -1.3125 0.625q-0.515625 0.625 -0.515625 1.859375zm10.1171875 4.328125l-2.1875 0l0 -8.296875l2.03125 0l0 1.171875q0.53125 -0.828125 0.9375 -1.09375q0.421875 -0.265625 0.953125 -0.265625q0.75 0 1.453125 0.40625l-0.6875 1.921875q-0.546875 -0.359375 -1.03125 -0.359375q-0.453125 0 -0.78125 0.25q-0.3125 0.25 -0.5 0.921875q-0.1875 0.65625 -0.1875 2.78125l0 2.5625zm8.9296875 -2.640625l2.1875 0.359375q-0.421875 1.203125 -1.328125 1.84375q-0.90625 0.625 -2.28125 0.625q-2.15625 0 -3.203125 -1.421875q-0.8125 -1.125 -0.8125 -2.859375q0 -2.0625 1.078125 -3.21875q1.078125 -1.171875 2.71875 -1.171875q1.859375 0 2.921875 1.21875q1.078125 1.21875 1.03125 3.75l-5.5 0q0.015625 0.96875 0.515625 1.515625q0.515625 0.546875 1.28125 0.546875q0.515625 0 0.859375 -0.28125q0.359375 -0.28125 0.53125 -0.90625zm0.125 -2.21875q-0.015625 -0.953125 -0.484375 -1.453125q-0.46875 -0.5 -1.140625 -0.5q-0.71875 0 -1.1875 0.53125q-0.46875 0.515625 -0.46875 1.421875l3.28125 0zm3.1953125 2.484375l2.203125 -0.328125q0.140625 0.640625 0.5625 0.96875q0.4375 0.328125 1.21875 0.328125q0.84375 0 1.28125 -0.3125q0.28125 -0.21875 0.28125 -0.578125q0 -0.25 -0.15625 -0.421875q-0.15625 -0.15625 -0.734375 -0.28125q-2.65625 -0.59375 -3.359375 -1.078125q-0.984375 -0.671875 -0.984375 -1.859375q0 -1.078125 0.84375 -1.8125q0.859375 -0.734375 2.640625 -0.734375q1.703125 0 2.53125 0.5625q0.828125 0.546875 1.140625 1.625l-2.0625 0.390625q-0.140625 -0.484375 -0.515625 -0.734375q-0.359375 -0.265625 -1.046875 -0.265625q-0.875 0 -1.25 0.234375q-0.25 0.171875 -0.25 0.453125q0 0.234375 0.21875 0.390625q0.296875 0.21875 2.046875 0.625q1.765625 0.390625 2.453125 0.96875q0.6875 0.59375 0.6875 1.640625q0 1.140625 -0.953125 1.96875q-0.953125 0.8125 -2.8125 0.8125q-1.703125 0 -2.6875 -0.6875q-0.984375 -0.6875 -1.296875 -1.875zm8.8984375 0l2.203125 -0.328125q0.140625 0.640625 0.5625 0.96875q0.4375 0.328125 1.21875 0.328125q0.84375 0 1.28125 -0.3125q0.28125 -0.21875 0.28125 -0.578125q0 -0.25 -0.15625 -0.421875q-0.15625 -0.15625 -0.734375 -0.28125q-2.65625 -0.59375 -3.359375 -1.078125q-0.984375 -0.671875 -0.984375 -1.859375q0 -1.078125 0.84375 -1.8125q0.859375 -0.734375 2.640625 -0.734375q1.703125 0 2.53125 0.5625q0.828125 0.546875 1.140625 1.625l-2.0625 0.390625q-0.140625 -0.484375 -0.515625 -0.734375q-0.359375 -0.265625 -1.046875 -0.265625q-0.875 0 -1.25 0.234375q-0.25 0.171875 -0.25 0.453125q0 0.234375 0.21875 0.390625q0.296875 0.21875 2.046875 0.625q1.765625 0.390625 2.453125 0.96875q0.6875 0.59375 0.6875 1.640625q0 1.140625 -0.953125 1.96875q-0.953125 0.8125 -2.8125 0.8125q-1.703125 0 -2.6875 -0.6875q-0.984375 -0.6875 -1.296875 -1.875zm14.4765625 -0.265625l2.1875 0.359375q-0.421875 1.203125 -1.328125 1.84375q-0.90625 0.625 -2.28125 0.625q-2.15625 0 -3.203125 -1.421875q-0.8125 -1.125 -0.8125 -2.859375q0 -2.0625 1.078125 -3.21875q1.078125 -1.171875 2.71875 -1.171875q1.859375 0 2.921875 1.21875q1.078125 1.21875 1.03125 3.75l-5.5 0q0.015625 0.96875 0.515625 1.515625q0.515625 0.546875 1.28125 0.546875q0.515625 0 0.859375 -0.28125q0.359375 -0.28125 0.53125 -0.90625zm0.125 -2.21875q-0.015625 -0.953125 -0.484375 -1.453125q-0.46875 -0.5 -1.140625 -0.5q-0.71875 0 -1.1875 0.53125q-0.46875 0.515625 -0.46875 1.421875l3.28125 0zm3.1953125 2.484375l2.203125 -0.328125q0.140625 0.640625 0.5625 0.96875q0.4375 0.328125 1.21875 0.328125q0.84375 0 1.28125 -0.3125q0.28125 -0.21875 0.28125 -0.578125q0 -0.25 -0.15625 -0.421875q-0.15625 -0.15625 -0.734375 -0.28125q-2.65625 -0.59375 -3.359375 -1.078125q-0.984375 -0.671875 -0.984375 -1.859375q0 -1.078125 0.84375 -1.8125q0.859375 -0.734375 2.640625 -0.734375q1.703125 0 2.53125 0.5625q0.828125 0.546875 1.140625 1.625l-2.0625 0.390625q-0.140625 -0.484375 -0.515625 -0.734375q-0.359375 -0.265625 -1.046875 -0.265625q-0.875 0 -1.25 0.234375q-0.25 0.171875 -0.25 0.453125q0 0.234375 0.21875 0.390625q0.296875 0.21875 2.046875 0.625q1.765625 0.390625 2.453125 0.96875q0.6875 0.59375 0.6875 1.640625q0 1.140625 -0.953125 1.96875q-0.953125 0.8125 -2.8125 0.8125q-1.703125 0 -2.6875 -0.6875q-0.984375 -0.6875 -1.296875 -1.875zm10.1015625 -3.734375l0 -2.1875l2.1875 0l0 2.1875l-2.1875 0zm0 6.109375l0 -2.203125l2.1875 0l0 2.203125l-2.1875 0z" fill-rule="nonzero"></path><path fill="#000000" fill-opacity="0.0" d="m363.36484 11.711287l119.02362 0l0 82.20472l-119.02362 0z" fill-rule="evenodd"></path><path fill="#000000" d="m378.27484 32.21316l-0.703125 0l-2.359375 -5.375l-0.125 0l0 7.34375l1.140625 0q0.21875 0 0.3125 0.078125q0.09375 0.078125 0.09375 0.21875q0 0.140625 -0.09375 0.234375q-0.09375 0.078125 -0.3125 0.078125l-2.265625 0q-0.234375 0 -0.328125 -0.078125q-0.09375 -0.09375 -0.09375 -0.234375q0 -0.140625 0.09375 -0.21875q0.09375 -0.078125 0.328125 -0.078125l0.515625 0l0 -7.34375l-0.390625 0q-0.21875 0 -0.3125 -0.078125q-0.09375 -0.09375 -0.09375 -0.234375q0 -0.140625 0.09375 -0.21875q0.09375 -0.078125 0.3125 -0.078125l1.515625 0l2.328125 5.296875l2.28125 -5.296875l1.515625 0q0.21875 0 0.3125 0.078125q0.109375 0.078125 0.109375 0.21875q0 0.140625 -0.109375 0.234375q-0.09375 0.078125 -0.3125 0.078125l-0.390625 0l0 7.34375l0.515625 0q0.234375 0 0.328125 0.078125q0.09375 0.078125 0.09375 0.21875q0 0.140625 -0.09375 0.234375q-0.09375 0.078125 -0.328125 0.078125l-2.265625 0q-0.21875 0 -0.3125 -0.078125q-0.09375 -0.09375 -0.09375 -0.234375q0 -0.140625 0.09375 -0.21875q0.09375 -0.078125 0.3125 -0.078125l1.140625 0l0 -7.34375l-0.125 0l-2.328125 5.375zm11.92334 -0.453125l-6.265625 0q0.15625 1.203125 1.0 1.9375q0.84375 0.71875 2.078125 0.71875q0.6875 0 1.4375 -0.21875q0.75 -0.234375 1.234375 -0.609375q0.140625 -0.109375 0.234375 -0.109375q0.125 0 0.203125 0.09375q0.09375 0.09375 0.09375 0.21875q0 0.125 -0.109375 0.234375q-0.359375 0.375 -1.265625 0.6875q-0.890625 0.3125 -1.828125 0.3125q-1.59375 0 -2.65625 -1.03125q-1.046875 -1.03125 -1.046875 -2.5q0 -1.34375 0.984375 -2.296875q1.0 -0.96875 2.46875 -0.96875q1.5 0 2.46875 0.984375q0.984375 0.984375 0.96875 2.546875zm-0.625 -0.609375q-0.171875 -1.03125 -0.953125 -1.65625q-0.78125 -0.640625 -1.859375 -0.640625q-1.078125 0 -1.859375 0.625q-0.765625 0.625 -0.96875 1.671875l5.640625 0zm3.5014648 -2.703125l0 0.625q0.78125 -0.84375 1.578125 -0.84375q0.46875 0 0.828125 0.25q0.359375 0.25 0.59375 0.765625q0.421875 -0.515625 0.84375 -0.765625q0.421875 -0.25 0.84375 -0.25q0.65625 0 1.0625 0.4375q0.515625 0.546875 0.515625 1.203125l0 4.3125l0.515625 0q0.21875 0 0.3125 0.078125q0.109375 0.078125 0.109375 0.21875q0 0.140625 -0.109375 0.234375q-0.09375 0.078125 -0.3125 0.078125l-1.125 0l0 -4.859375q0 -0.46875 -0.296875 -0.765625q-0.28125 -0.3125 -0.65625 -0.3125q-0.328125 0 -0.703125 0.25q-0.375 0.25 -0.859375 1.0l0 4.078125l0.515625 0q0.21875 0 0.3125 0.078125q0.09375 0.078125 0.09375 0.21875q0 0.140625 -0.09375 0.234375q-0.09375 0.078125 -0.3125 0.078125l-1.140625 0l0 -4.8125q0 -0.484375 -0.296875 -0.796875q-0.28125 -0.328125 -0.640625 -0.328125q-0.328125 0 -0.640625 0.203125q-0.453125 0.3125 -0.9375 1.046875l0 4.078125l0.515625 0q0.21875 0 0.3125 0.078125q0.09375 0.078125 0.09375 0.21875q0 0.140625 -0.09375 0.234375q-0.09375 0.078125 -0.3125 0.078125l-1.65625 0q-0.21875 0 -0.3125 -0.078125q-0.09375 -0.09375 -0.09375 -0.234375q0 -0.140625 0.09375 -0.21875q0.09375 -0.078125 0.3125 -0.078125l0.515625 0l0 -5.109375l-0.515625 0q-0.21875 0 -0.3125 -0.078125q-0.09375 -0.09375 -0.09375 -0.234375q0 -0.140625 0.09375 -0.21875q0.09375 -0.09375 0.3125 -0.09375l1.140625 0zm15.23584 3.1875q0 1.40625 -1.015625 2.40625q-1.0 0.984375 -2.421875 0.984375q-1.4375 0 -2.4375 -1.0q-1.0 -1.0 -1.0 -2.390625q0 -1.40625 1.0 -2.40625q1.0 -1.0 2.4375 -1.0q1.421875 0 2.421875 1.0q1.015625 0.984375 1.015625 2.40625zm-0.625 0q0 -1.15625 -0.828125 -1.96875q-0.8125 -0.8125 -1.984375 -0.8125q-1.171875 0 -2.0 0.8125q-0.828125 0.8125 -0.828125 1.96875q0 1.140625 0.828125 1.96875q0.828125 0.8125 2.0 0.8125q1.171875 0 1.984375 -0.8125q0.828125 -0.8125 0.828125 -1.96875zm5.45459 -3.1875l0 1.546875q1.203125 -1.078125 1.796875 -1.390625q0.59375 -0.3125 1.109375 -0.3125q0.546875 0 1.015625 0.375q0.46875 0.375 0.46875 0.5625q0 0.140625 -0.09375 0.234375q-0.09375 0.078125 -0.21875 0.078125q-0.078125 0 -0.140625 -0.015625q-0.046875 -0.03125 -0.1875 -0.171875q-0.25 -0.25 -0.4375 -0.34375q-0.1875 -0.09375 -0.375 -0.09375q-0.40625 0 -0.984375 0.328125q-0.5625 0.3125 -1.953125 1.5625l0 3.375l2.71875 0q0.234375 0 0.328125 0.078125q0.09375 0.078125 0.09375 0.21875q0 0.140625 -0.09375 0.234375q-0.09375 0.078125 -0.328125 0.078125l-4.828125 0q-0.21875 0 -0.3125 -0.078125q-0.09375 -0.09375 -0.09375 -0.21875q0 -0.125 0.09375 -0.203125q0.09375 -0.09375 0.3125 -0.09375l1.5 0l0 -5.125l-1.140625 0q-0.21875 0 -0.3125 -0.078125q-0.09375 -0.09375 -0.09375 -0.234375q0 -0.140625 0.078125 -0.21875q0.09375 -0.09375 0.328125 -0.09375l1.75 0zm9.782715 6.34375l-2.859375 -5.71875l-0.1875 0q-0.21875 0 -0.3125 -0.078125q-0.09375 -0.09375 -0.09375 -0.234375q0 -0.09375 0.046875 -0.171875q0.046875 -0.078125 0.125 -0.109375q0.078125 -0.03125 0.234375 -0.03125l1.6875 0q0.21875 0 0.3125 0.09375q0.09375 0.078125 0.09375 0.21875q0 0.140625 -0.09375 0.234375q-0.09375 0.078125 -0.3125 0.078125l-0.828125 0l2.515625 5.046875l2.46875 -5.046875l-0.828125 0q-0.21875 0 -0.3125 -0.078125q-0.09375 -0.09375 -0.09375 -0.234375q0 -0.140625 0.09375 -0.21875q0.09375 -0.09375 0.3125 -0.09375l1.6875 0q0.21875 0 0.3125 0.09375q0.09375 0.078125 0.09375 0.21875q0 0.09375 -0.0625 0.1875q-0.046875 0.078125 -0.125 0.109375q-0.078125 0.015625 -0.40625 0.015625l-3.90625 7.9375l0.96875 0q0.21875 0 0.3125 0.078125q0.09375 0.078125 0.09375 0.21875q0 0.140625 -0.09375 0.21875q-0.09375 0.09375 -0.3125 0.09375l-3.546875 0q-0.21875 0 -0.3125 -0.09375q-0.09375 -0.078125 -0.09375 -0.21875q0 -0.140625 0.09375 -0.21875q0.09375 -0.078125 0.3125 -0.078125l1.921875 0l1.09375 -2.21875zm20.518555 -5.71875l0 -0.203125q0 -0.234375 0.09375 -0.328125q0.09375 -0.09375 0.21875 -0.09375q0.140625 0 0.21875 0.09375q0.09375 0.09375 0.09375 0.328125l0 1.390625q0 0.21875 -0.09375 0.328125q-0.078125 0.09375 -0.21875 0.09375q-0.125 0 -0.21875 -0.078125q-0.078125 -0.09375 -0.09375 -0.296875q-0.03125 -0.515625 -0.671875 -0.984375q-0.640625 -0.46875 -1.734375 -0.46875q-1.375 0 -2.078125 0.859375q-0.703125 0.859375 -0.703125 1.953125q0 1.203125 0.78125 1.984375q0.78125 0.765625 2.03125 0.765625q0.703125 0 1.453125 -0.265625q0.75 -0.265625 1.34375 -0.84375q0.15625 -0.15625 0.265625 -0.15625q0.125 0 0.203125 0.09375q0.09375 0.078125 0.09375 0.203125q0 0.3125 -0.734375 0.796875q-1.203125 0.78125 -2.65625 0.78125q-1.484375 0 -2.453125 -0.9375q-0.953125 -0.953125 -0.953125 -2.40625q0 -1.484375 0.96875 -2.46875q0.984375 -0.984375 2.46875 -0.984375q1.421875 0 2.375 0.84375zm9.76709 2.6875l-6.265625 0q0.15625 1.203125 1.0 1.9375q0.84375 0.71875 2.078125 0.71875q0.6875 0 1.4375 -0.21875q0.75 -0.234375 1.234375 -0.609375q0.140625 -0.109375 0.234375 -0.109375q0.125 0 0.203125 0.09375q0.09375 0.09375 0.09375 0.21875q0 0.125 -0.109375 0.234375q-0.359375 0.375 -1.265625 0.6875q-0.890625 0.3125 -1.828125 0.3125q-1.59375 0 -2.65625 -1.03125q-1.046875 -1.03125 -1.046875 -2.5q0 -1.34375 0.984375 -2.296875q1.0 -0.96875 2.46875 -0.96875q1.5 0 2.46875 0.984375q0.984375 0.984375 0.96875 2.546875zm-0.625 -0.609375q-0.171875 -1.03125 -0.953125 -1.65625q-0.78125 -0.640625 -1.859375 -0.640625q-1.078125 0 -1.859375 0.625q-0.765625 0.625 -0.96875 1.671875l5.640625 0zm6.61084 -5.546875l0 8.578125l2.421875 0q0.21875 0 0.3125 0.078125q0.09375 0.078125 0.09375 0.21875q0 0.140625 -0.09375 0.234375q-0.09375 0.078125 -0.3125 0.078125l-5.453125 0q-0.21875 0 -0.3125 -0.078125q-0.09375 -0.09375 -0.09375 -0.234375q0 -0.140625 0.09375 -0.21875q0.09375 -0.078125 0.3125 -0.078125l2.421875 0l0 -7.953125l-1.78125 0q-0.21875 0 -0.328125 -0.09375q-0.09375 -0.09375 -0.09375 -0.234375q0 -0.125 0.09375 -0.203125q0.109375 -0.09375 0.328125 -0.09375l2.390625 0zm9.001465 0l0 8.578125l2.421875 0q0.21875 0 0.3125 0.078125q0.09375 0.078125 0.09375 0.21875q0 0.140625 -0.09375 0.234375q-0.09375 0.078125 -0.3125 0.078125l-5.453125 0q-0.21875 0 -0.3125 -0.078125q-0.09375 -0.09375 -0.09375 -0.234375q0 -0.140625 0.09375 -0.21875q0.09375 -0.078125 0.3125 -0.078125l2.421875 0l0 -7.953125l-1.78125 0q-0.21875 0 -0.328125 -0.09375q-0.09375 -0.09375 -0.09375 -0.234375q0 -0.125 0.09375 -0.203125q0.109375 -0.09375 0.328125 -0.09375l2.390625 0z" fill-rule="nonzero"></path><path fill="#000000" d="m381.1037 46.447536l3.34375 0q0.21875 0 0.3125 0.09375q0.09375 0.078125 0.09375 0.21875q0 0.140625 -0.09375 0.234375q-0.09375 0.078125 -0.3125 0.078125l-3.34375 0l0 4.09375q0 0.53125 0.421875 0.890625q0.4375 0.359375 1.265625 0.359375q0.625 0 1.34375 -0.1875q0.734375 -0.1875 1.125 -0.421875q0.15625 -0.09375 0.25 -0.09375q0.109375 0 0.203125 0.09375q0.09375 0.09375 0.09375 0.21875q0 0.109375 -0.09375 0.203125q-0.234375 0.234375 -1.140625 0.515625q-0.90625 0.28125 -1.734375 0.28125q-1.078125 0 -1.71875 -0.5q-0.640625 -0.5 -0.640625 -1.359375l0 -4.09375l-1.125 0q-0.21875 0 -0.328125 -0.078125q-0.09375 -0.09375 -0.09375 -0.234375q0 -0.140625 0.09375 -0.21875q0.109375 -0.09375 0.328125 -0.09375l1.125 0l0 -1.8125q0 -0.21875 0.09375 -0.3125q0.09375 -0.09375 0.21875 -0.09375q0.140625 0 0.21875 0.09375q0.09375 0.09375 0.09375 0.3125l0 1.8125zm8.23584 -2.84375l0 3.78125q0.59375 -0.640625 1.125 -0.890625q0.546875 -0.265625 1.21875 -0.265625q0.703125 0 1.203125 0.25q0.515625 0.25 0.84375 0.78125q0.34375 0.515625 0.34375 1.09375l0 3.828125l0.6875 0q0.21875 0 0.3125 0.078125q0.09375 0.078125 0.09375 0.21875q0 0.140625 -0.09375 0.234375q-0.09375 0.078125 -0.3125 0.078125l-2.0 0q-0.234375 0 -0.328125 -0.078125q-0.09375 -0.09375 -0.09375 -0.234375q0 -0.140625 0.09375 -0.21875q0.09375 -0.078125 0.328125 -0.078125l0.6875 0l0 -3.78125q0 -0.65625 -0.484375 -1.109375q-0.46875 -0.453125 -1.328125 -0.453125q-0.671875 0 -1.15625 0.328125q-0.34375 0.234375 -1.140625 1.109375l0 3.90625l0.703125 0q0.21875 0 0.3125 0.078125q0.09375 0.078125 0.09375 0.21875q0 0.140625 -0.09375 0.234375q-0.09375 0.078125 -0.3125 0.078125l-2.0 0q-0.234375 0 -0.328125 -0.078125q-0.09375 -0.09375 -0.09375 -0.234375q0 -0.140625 0.09375 -0.21875q0.09375 -0.078125 0.328125 -0.078125l0.6875 0l0 -7.953125l-0.828125 0q-0.21875 0 -0.3125 -0.09375q-0.09375 -0.09375 -0.09375 -0.234375q0 -0.125 0.09375 -0.203125q0.09375 -0.09375 0.3125 -0.09375l1.4375 0zm12.79834 9.1875l0 -0.890625q-1.34375 1.125 -2.859375 1.125q-1.109375 0 -1.734375 -0.546875q-0.609375 -0.5625 -0.609375 -1.375q0 -0.890625 0.8125 -1.5625q0.828125 -0.671875 2.390625 -0.671875q0.421875 0 0.921875 0.0625q0.5 0.046875 1.078125 0.171875l0 -1.0q0 -0.5 -0.46875 -0.875q-0.46875 -0.375 -1.40625 -0.375q-0.71875 0 -2.015625 0.421875q-0.234375 0.0625 -0.296875 0.0625q-0.109375 0 -0.203125 -0.078125q-0.078125 -0.09375 -0.078125 -0.21875q0 -0.125 0.078125 -0.203125q0.09375 -0.109375 0.828125 -0.296875q1.140625 -0.3125 1.71875 -0.3125q1.171875 0 1.8125 0.578125q0.65625 0.578125 0.65625 1.296875l0 4.078125l0.828125 0q0.21875 0 0.3125 0.078125q0.09375 0.078125 0.09375 0.21875q0 0.140625 -0.09375 0.234375q-0.09375 0.078125 -0.3125 0.078125l-1.453125 0zm0 -3.0625q-0.421875 -0.125 -0.90625 -0.171875q-0.484375 -0.0625 -1.015625 -0.0625q-1.34375 0 -2.109375 0.578125q-0.5625 0.421875 -0.5625 1.03125q0 0.546875 0.4375 0.9375q0.4375 0.375 1.265625 0.375q0.796875 0 1.484375 -0.3125q0.6875 -0.328125 1.40625 -1.015625l0 -1.359375zm5.970215 -3.28125l3.34375 0q0.21875 0 0.3125 0.09375q0.09375 0.078125 0.09375 0.21875q0 0.140625 -0.09375 0.234375q-0.09375 0.078125 -0.3125 0.078125l-3.34375 0l0 4.09375q0 0.53125 0.421875 0.890625q0.4375 0.359375 1.265625 0.359375q0.625 0 1.34375 -0.1875q0.734375 -0.1875 1.125 -0.421875q0.15625 -0.09375 0.25 -0.09375q0.109375 0 0.203125 0.09375q0.09375 0.09375 0.09375 0.21875q0 0.109375 -0.09375 0.203125q-0.234375 0.234375 -1.140625 0.515625q-0.90625 0.28125 -1.734375 0.28125q-1.078125 0 -1.71875 -0.5q-0.640625 -0.5 -0.640625 -1.359375l0 -4.09375l-1.125 0q-0.21875 0 -0.328125 -0.078125q-0.09375 -0.09375 -0.09375 -0.234375q0 -0.140625 0.09375 -0.21875q0.109375 -0.09375 0.328125 -0.09375l1.125 0l0 -1.8125q0 -0.21875 0.09375 -0.3125q0.09375 -0.09375 0.21875 -0.09375q0.140625 0 0.21875 0.09375q0.09375 0.09375 0.09375 0.3125l0 1.8125zm17.237305 -2.84375l0 3.78125q0.59375 -0.640625 1.125 -0.890625q0.546875 -0.265625 1.21875 -0.265625q0.703125 0 1.203125 0.25q0.515625 0.25 0.84375 0.78125q0.34375 0.515625 0.34375 1.09375l0 3.828125l0.6875 0q0.21875 0 0.3125 0.078125q0.09375 0.078125 0.09375 0.21875q0 0.140625 -0.09375 0.234375q-0.09375 0.078125 -0.3125 0.078125l-2.0 0q-0.234375 0 -0.328125 -0.078125q-0.09375 -0.09375 -0.09375 -0.234375q0 -0.140625 0.09375 -0.21875q0.09375 -0.078125 0.328125 -0.078125l0.6875 0l0 -3.78125q0 -0.65625 -0.484375 -1.109375q-0.46875 -0.453125 -1.328125 -0.453125q-0.671875 0 -1.15625 0.328125q-0.34375 0.234375 -1.140625 1.109375l0 3.90625l0.703125 0q0.21875 0 0.3125 0.078125q0.09375 0.078125 0.09375 0.21875q0 0.140625 -0.09375 0.234375q-0.09375 0.078125 -0.3125 0.078125l-2.0 0q-0.234375 0 -0.328125 -0.078125q-0.09375 -0.09375 -0.09375 -0.234375q0 -0.140625 0.09375 -0.21875q0.09375 -0.078125 0.328125 -0.078125l0.6875 0l0 -7.953125l-0.828125 0q-0.21875 0 -0.3125 -0.09375q-0.09375 -0.09375 -0.09375 -0.234375q0 -0.125 0.09375 -0.203125q0.09375 -0.09375 0.3125 -0.09375l1.4375 0zm14.470215 6.03125q0 1.40625 -1.015625 2.40625q-1.0 0.984375 -2.421875 0.984375q-1.4375 0 -2.4375 -1.0q-1.0 -1.0 -1.0 -2.390625q0 -1.40625 1.0 -2.40625q1.0 -1.0 2.4375 -1.0q1.421875 0 2.421875 1.0q1.015625 0.984375 1.015625 2.40625zm-0.625 0q0 -1.15625 -0.828125 -1.96875q-0.8125 -0.8125 -1.984375 -0.8125q-1.171875 0 -2.0 0.8125q-0.828125 0.8125 -0.828125 1.96875q0 1.140625 0.828125 1.96875q0.828125 0.8125 2.0 0.8125q1.171875 0 1.984375 -0.8125q0.828125 -0.8125 0.828125 -1.96875zm6.501465 -6.03125l0 8.578125l2.421875 0q0.21875 0 0.3125 0.078125q0.09375 0.078125 0.09375 0.21875q0 0.140625 -0.09375 0.234375q-0.09375 0.078125 -0.3125 0.078125l-5.453125 0q-0.21875 0 -0.3125 -0.078125q-0.09375 -0.09375 -0.09375 -0.234375q0 -0.140625 0.09375 -0.21875q0.09375 -0.078125 0.3125 -0.078125l2.421875 0l0 -7.953125l-1.78125 0q-0.21875 0 -0.328125 -0.09375q-0.09375 -0.09375 -0.09375 -0.234375q0 -0.125 0.09375 -0.203125q0.109375 -0.09375 0.328125 -0.09375l2.390625 0zm11.70459 0l0 8.578125l0.8125 0q0.234375 0 0.328125 0.078125q0.09375 0.078125 0.09375 0.21875q0 0.140625 -0.09375 0.234375q-0.09375 0.078125 -0.328125 0.078125l-1.4375 0l0 -1.21875q-1.0625 1.453125 -2.71875 1.453125q-0.828125 0 -1.59375 -0.4375q-0.765625 -0.4375 -1.21875 -1.25q-0.4375 -0.828125 -0.4375 -1.703125q0 -0.875 0.4375 -1.6875q0.453125 -0.828125 1.21875 -1.265625q0.765625 -0.453125 1.609375 -0.453125q1.609375 0 2.703125 1.46875l0 -3.46875l-0.8125 0q-0.234375 0 -0.328125 -0.09375q-0.09375 -0.09375 -0.09375 -0.234375q0 -0.125 0.09375 -0.203125q0.09375 -0.09375 0.328125 -0.09375l1.4375 0zm-0.625 6.03125q0 -1.171875 -0.796875 -1.96875q-0.78125 -0.8125 -1.875 -0.8125q-1.09375 0 -1.890625 0.8125q-0.796875 0.796875 -0.796875 1.96875q0 1.15625 0.796875 1.96875q0.796875 0.8125 1.890625 0.8125q1.09375 0 1.875 -0.8125q0.796875 -0.8125 0.796875 -1.96875zm8.64209 -2.78125q0 -0.21875 0.078125 -0.3125q0.09375 -0.09375 0.234375 -0.09375q0.140625 0 0.21875 0.09375q0.09375 0.09375 0.09375 0.328125l0 1.046875q0 0.21875 -0.09375 0.328125q-0.078125 0.09375 -0.21875 0.09375q-0.125 0 -0.21875 -0.078125q-0.078125 -0.09375 -0.09375 -0.28125q-0.046875 -0.4375 -0.453125 -0.71875q-0.59375 -0.40625 -1.59375 -0.40625q-1.03125 0 -1.59375 0.421875q-0.4375 0.3125 -0.4375 0.703125q0 0.4375 0.515625 0.71875q0.34375 0.21875 1.328125 0.328125q1.28125 0.125 1.78125 0.3125q0.71875 0.25 1.0625 0.703125q0.34375 0.453125 0.34375 0.984375q0 0.78125 -0.75 1.390625q-0.75 0.609375 -2.21875 0.609375q-1.453125 0 -2.390625 -0.734375q0 0.25 -0.03125 0.328125q-0.015625 0.0625 -0.09375 0.125q-0.078125 0.046875 -0.171875 0.046875q-0.140625 0 -0.234375 -0.09375q-0.078125 -0.09375 -0.078125 -0.3125l0 -1.265625q0 -0.21875 0.078125 -0.3125q0.09375 -0.109375 0.234375 -0.109375q0.125 0 0.21875 0.09375q0.09375 0.09375 0.09375 0.25q0 0.34375 0.171875 0.5625q0.25 0.359375 0.8125 0.59375q0.5625 0.21875 1.375 0.21875q1.203125 0 1.78125 -0.4375q0.59375 -0.453125 0.59375 -0.953125q0 -0.578125 -0.59375 -0.921875q-0.609375 -0.34375 -1.75 -0.453125q-1.140625 -0.125 -1.640625 -0.3125q-0.5 -0.1875 -0.78125 -0.5625q-0.28125 -0.390625 -0.28125 -0.828125q0 -0.78125 0.78125 -1.25q0.78125 -0.46875 1.84375 -0.46875q1.28125 0 2.078125 0.625z" fill-rule="nonzero"></path><path fill="#000000" d="m376.60297 64.44754l3.34375 0q0.21875 0 0.3125 0.09375q0.09375 0.078125 0.09375 0.21875q0 0.140625 -0.09375 0.234375q-0.09375 0.078125 -0.3125 0.078125l-3.34375 0l0 4.09375q0 0.53125 0.421875 0.890625q0.4375 0.359375 1.265625 0.359375q0.625 0 1.34375 -0.1875q0.734375 -0.1875 1.125 -0.421875q0.15625 -0.09375 0.25 -0.09375q0.109375 0 0.203125 0.09375q0.09375 0.09375 0.09375 0.21875q0 0.109375 -0.09375 0.203125q-0.234375 0.234375 -1.140625 0.515625q-0.90625 0.28125 -1.734375 0.28125q-1.078125 0 -1.71875 -0.5q-0.640625 -0.5 -0.640625 -1.359375l0 -4.09375l-1.125 0q-0.21875 0 -0.328125 -0.078125q-0.09375 -0.09375 -0.09375 -0.234375q0 -0.140625 0.09375 -0.21875q0.109375 -0.09375 0.328125 -0.09375l1.125 0l0 -1.8125038q0 -0.21875 0.09375 -0.3125q0.09375 -0.09375 0.21875 -0.09375q0.140625 0 0.21875 0.09375q0.09375 0.09375 0.09375 0.3125l0 1.8125038zm8.23584 -2.8437538l0 3.7812538q0.59375 -0.640625 1.125 -0.890625q0.546875 -0.265625 1.21875 -0.265625q0.703125 0 1.203125 0.25q0.515625 0.25 0.84375 0.78125q0.34375 0.515625 0.34375 1.09375l0 3.828125l0.6875 0q0.21875 0 0.3125 0.078125q0.09375 0.078125 0.09375 0.21875q0 0.140625 -0.09375 0.234375q-0.09375 0.078125 -0.3125 0.078125l-2.0 0q-0.234375 0 -0.328125 -0.078125q-0.09375 -0.09375 -0.09375 -0.234375q0 -0.140625 0.09375 -0.21875q0.09375 -0.078125 0.328125 -0.078125l0.6875 0l0 -3.78125q0 -0.65625 -0.484375 -1.109375q-0.46875 -0.453125 -1.328125 -0.453125q-0.671875 0 -1.15625 0.328125q-0.34375 0.234375 -1.140625 1.109375l0 3.90625l0.703125 0q0.21875 0 0.3125 0.078125q0.09375 0.078125 0.09375 0.21875q0 0.140625 -0.09375 0.234375q-0.09375 0.078125 -0.3125 0.078125l-2.0 0q-0.234375 0 -0.328125 -0.078125q-0.09375 -0.09375 -0.09375 -0.234375q0 -0.140625 0.09375 -0.21875q0.09375 -0.078125 0.328125 -0.078125l0.6875 0l0 -7.953129l-0.828125 0q-0.21875 0 -0.3125 -0.09375q-0.09375 -0.09375 -0.09375 -0.234375q0 -0.125 0.09375 -0.203125q0.09375 -0.09375 0.3125 -0.09375l1.4375 0zm14.36084 6.156254l-6.265625 0q0.15625 1.203125 1.0 1.9375q0.84375 0.71875 2.078125 0.71875q0.6875 0 1.4375 -0.21875q0.75 -0.234375 1.234375 -0.609375q0.140625 -0.109375 0.234375 -0.109375q0.125 0 0.203125 0.09375q0.09375 0.09375 0.09375 0.21875q0 0.125 -0.109375 0.234375q-0.359375 0.375 -1.265625 0.6875q-0.890625 0.3125 -1.828125 0.3125q-1.59375 0 -2.65625 -1.03125q-1.046875 -1.03125 -1.046875 -2.5q0 -1.34375 0.984375 -2.296875q1.0 -0.96875 2.46875 -0.96875q1.5 0 2.46875 0.984375q0.984375 0.984375 0.96875 2.546875zm-0.625 -0.609375q-0.171875 -1.03125 -0.953125 -1.65625q-0.78125 -0.640625 -1.859375 -0.640625q-1.078125 0 -1.859375 0.625q-0.765625 0.625 -0.96875 1.671875l5.640625 0zm15.612305 -5.859379l0 1.59375l-0.921875 0l0 -1.59375l0.921875 0zm0.015625 3.1562538l0 5.734375l2.421875 0q0.21875 0 0.3125 0.078125q0.09375 0.078125 0.09375 0.21875q0 0.140625 -0.09375 0.234375q-0.09375 0.078125 -0.3125 0.078125l-5.453125 0q-0.21875 0 -0.3125 -0.078125q-0.09375 -0.09375 -0.09375 -0.234375q0 -0.140625 0.09375 -0.21875q0.09375 -0.078125 0.3125 -0.078125l2.421875 0l0 -5.109375l-1.796875 0q-0.21875 0 -0.328125 -0.078125q-0.09375 -0.09375 -0.09375 -0.234375q0 -0.140625 0.09375 -0.21875q0.09375 -0.09375 0.328125 -0.09375l2.40625 0zm6.688965 0l0 0.9375q0.640625 -0.65625 1.15625 -0.90625q0.53125 -0.25 1.171875 -0.25q0.703125 0 1.28125 0.296875q0.421875 0.21875 0.75 0.734375q0.328125 0.5 0.328125 1.046875l0 3.875l0.53125 0q0.21875 0 0.3125 0.078125q0.09375 0.078125 0.09375 0.21875q0 0.140625 -0.09375 0.234375q-0.09375 0.078125 -0.3125 0.078125l-1.65625 0q-0.21875 0 -0.328125 -0.078125q-0.09375 -0.09375 -0.09375 -0.234375q0 -0.140625 0.09375 -0.21875q0.109375 -0.078125 0.328125 -0.078125l0.515625 0l0 -3.78125q0 -0.65625 -0.484375 -1.09375q-0.46875 -0.453125 -1.265625 -0.453125q-0.609375 0 -1.0625 0.25q-0.4375 0.234375 -1.265625 1.21875l0 3.859375l0.6875 0q0.21875 0 0.3125 0.078125q0.109375 0.078125 0.109375 0.21875q0 0.140625 -0.109375 0.234375q-0.09375 0.078125 -0.3125 0.078125l-2.0 0q-0.21875 0 -0.3125 -0.078125q-0.09375 -0.09375 -0.09375 -0.234375q0 -0.140625 0.09375 -0.21875q0.09375 -0.078125 0.3125 -0.078125l0.6875 0l0 -5.109375l-0.515625 0q-0.21875 0 -0.3125 -0.078125q-0.09375 -0.09375 -0.09375 -0.234375q0 -0.140625 0.09375 -0.21875q0.09375 -0.09375 0.3125 -0.09375l1.140625 0zm9.720215 0l3.34375 0q0.21875 0 0.3125 0.09375q0.09375 0.078125 0.09375 0.21875q0 0.140625 -0.09375 0.234375q-0.09375 0.078125 -0.3125 0.078125l-3.34375 0l0 4.09375q0 0.53125 0.421875 0.890625q0.4375 0.359375 1.265625 0.359375q0.625 0 1.34375 -0.1875q0.734375 -0.1875 1.125 -0.421875q0.15625 -0.09375 0.25 -0.09375q0.109375 0 0.203125 0.09375q0.09375 0.09375 0.09375 0.21875q0 0.109375 -0.09375 0.203125q-0.234375 0.234375 -1.140625 0.515625q-0.90625 0.28125 -1.734375 0.28125q-1.078125 0 -1.71875 -0.5q-0.640625 -0.5 -0.640625 -1.359375l0 -4.09375l-1.125 0q-0.21875 0 -0.328125 -0.078125q-0.09375 -0.09375 -0.09375 -0.234375q0 -0.140625 0.09375 -0.21875q0.109375 -0.09375 0.328125 -0.09375l1.125 0l0 -1.8125038q0 -0.21875 0.09375 -0.3125q0.09375 -0.09375 0.21875 -0.09375q0.140625 0 0.21875 0.09375q0.09375 0.09375 0.09375 0.3125l0 1.8125038zm13.595215 3.3125l-6.265625 0q0.15625 1.203125 1.0 1.9375q0.84375 0.71875 2.078125 0.71875q0.6875 0 1.4375 -0.21875q0.75 -0.234375 1.234375 -0.609375q0.140625 -0.109375 0.234375 -0.109375q0.125 0 0.203125 0.09375q0.09375 0.09375 0.09375 0.21875q0 0.125 -0.109375 0.234375q-0.359375 0.375 -1.265625 0.6875q-0.890625 0.3125 -1.828125 0.3125q-1.59375 0 -2.65625 -1.03125q-1.046875 -1.03125 -1.046875 -2.5q0 -1.34375 0.984375 -2.296875q1.0 -0.96875 2.46875 -0.96875q1.5 0 2.46875 0.984375q0.984375 0.984375 0.96875 2.546875zm-0.625 -0.609375q-0.171875 -1.03125 -0.953125 -1.65625q-0.78125 -0.640625 -1.859375 -0.640625q-1.078125 0 -1.859375 0.625q-0.765625 0.625 -0.96875 1.671875l5.640625 0zm8.36084 -1.578125l0 -1.125l1.453125 0q0.21875 0 0.3125 0.09375q0.09375 0.078125 0.09375 0.21875q0 0.140625 -0.09375 0.234375q-0.09375 0.078125 -0.3125 0.078125l-0.828125 0l0 6.140625q0 0.625 -0.265625 1.109375q-0.171875 0.3125 -0.59375 0.65625q-0.40625 0.34375 -0.75 0.484375q-0.328125 0.15625 -0.890625 0.15625l-1.75 0q-0.21875 0 -0.3125 -0.09375q-0.09375 -0.078125 -0.09375 -0.21875q0 -0.140625 0.09375 -0.234375q0.09375 -0.078125 0.3125 -0.078125l1.765625 0.015625q0.546875 0 0.984375 -0.28125q0.4375 -0.28125 0.71875 -0.8125q0.15625 -0.3125 0.15625 -0.78125l0 -1.859375q-0.984375 1.359375 -2.546875 1.359375q-1.265625 0 -2.1875 -0.9375q-0.90625 -0.9375 -0.90625 -2.265625q0 -1.328125 0.90625 -2.265625q0.921875 -0.9375 2.1875 -0.9375q1.5625 0 2.546875 1.34375zm0 1.859375q0 -1.09375 -0.75 -1.828125q-0.734375 -0.75 -1.765625 -0.75q-1.03125 0 -1.78125 0.75q-0.734375 0.75 -0.734375 1.828125q0 1.078125 0.734375 1.828125q0.75 0.75 1.78125 0.75q1.03125 0 1.765625 -0.75q0.75 -0.75 0.75 -1.828125zm10.26709 0.328125l-6.265625 0q0.15625 1.203125 1.0 1.9375q0.84375 0.71875 2.078125 0.71875q0.6875 0 1.4375 -0.21875q0.75 -0.234375 1.234375 -0.609375q0.140625 -0.109375 0.234375 -0.109375q0.125 0 0.203125 0.09375q0.09375 0.09375 0.09375 0.21875q0 0.125 -0.109375 0.234375q-0.359375 0.375 -1.265625 0.6875q-0.890625 0.3125 -1.828125 0.3125q-1.59375 0 -2.65625 -1.03125q-1.046875 -1.03125 -1.046875 -2.5q0 -1.34375 0.984375 -2.296875q1.0 -0.96875 2.46875 -0.96875q1.5 0 2.46875 0.984375q0.984375 0.984375 0.96875 2.546875zm-0.625 -0.609375q-0.171875 -1.03125 -0.953125 -1.65625q-0.78125 -0.640625 -1.859375 -0.640625q-1.078125 0 -1.859375 0.625q-0.765625 0.625 -0.96875 1.671875l5.640625 0zm5.563965 -2.703125l0 1.546875q1.203125 -1.078125 1.796875 -1.390625q0.59375 -0.3125 1.109375 -0.3125q0.546875 0 1.015625 0.375q0.46875 0.375 0.46875 0.5625q0 0.140625 -0.09375 0.234375q-0.09375 0.078125 -0.21875 0.078125q-0.078125 0 -0.140625 -0.015625q-0.046875 -0.03125 -0.1875 -0.171875q-0.25 -0.25 -0.4375 -0.34375q-0.1875 -0.09375 -0.375 -0.09375q-0.40625 0 -0.984375 0.328125q-0.5625 0.3125 -1.953125 1.5625l0 3.375l2.71875 0q0.234375 0 0.328125 0.078125q0.09375 0.078125 0.09375 0.21875q0 0.140625 -0.09375 0.234375q-0.09375 0.078125 -0.328125 0.078125l-4.828125 0q-0.21875 0 -0.3125 -0.078125q-0.09375 -0.09375 -0.09375 -0.21875q0 -0.125 0.09375 -0.203125q0.09375 -0.09375 0.3125 -0.09375l1.5 0l0 -5.125l-1.140625 0q-0.21875 0 -0.3125 -0.078125q-0.09375 -0.09375 -0.09375 -0.234375q0 -0.140625 0.078125 -0.21875q0.09375 -0.09375 0.328125 -0.09375l1.75 0z" fill-rule="nonzero"></path><path fill="#000000" d="m424.14154 83.79129q0.84375 0.375 1.28125 1.046875q0.453125 0.65625 0.453125 1.375q0 1.109375 -0.890625 1.953125q-0.890625 0.84375 -2.25 0.84375q-0.78125 0 -1.640625 -0.328125q-0.84375 -0.34375 -1.1875 -0.703125q-0.109375 -0.109375 -0.109375 -0.25q0 -0.109375 0.078125 -0.1875q0.09375 -0.09375 0.21875 -0.09375q0.109375 0 0.265625 0.109375q1.125 0.84375 2.390625 0.84375q1.078125 0 1.796875 -0.671875q0.71875 -0.671875 0.71875 -1.5q0 -0.546875 -0.359375 -1.0625q-0.34375 -0.53125 -1.015625 -0.828125q-0.671875 -0.3125 -1.34375 -0.3125q-0.21875 0 -0.328125 -0.078125q-0.09375 -0.09375 -0.09375 -0.234375q0 -0.125 0.09375 -0.21875q0.09375 -0.09375 0.28125 -0.09375l0.53125 0.015625q0.828125 0 1.359375 -0.5q0.546875 -0.515625 0.546875 -1.171875q0 -0.6875 -0.578125 -1.21875q-0.5625 -0.53125 -1.46875 -0.53125q-0.640625 0 -1.171875 0.21875q-0.53125 0.21875 -0.859375 0.609375q-0.109375 0.140625 -0.171875 0.171875q-0.0625 0.03125 -0.140625 0.03125q-0.125 0 -0.21875 -0.078125q-0.078125 -0.09375 -0.078125 -0.203125q0 -0.296875 0.625 -0.75q0.890625 -0.609375 2.015625 -0.609375q1.171875 0 1.90625 0.703125q0.75 0.6875 0.75 1.65625q0 0.609375 -0.359375 1.171875q-0.359375 0.546875 -1.046875 0.875z" fill-rule="nonzero"></path><path fill="#000000" fill-opacity="0.0" d="m433.31497 91.2126l15.055115 27.496063" fill-rule="evenodd"></path><path stroke="#000000" stroke-width="1.0" stroke-linejoin="round" stroke-linecap="butt" d="m433.31497 91.2126l12.173553 22.233307" fill-rule="evenodd"></path><path fill="#000000" stroke="#000000" stroke-width="1.0" stroke-linecap="butt" d="m444.03973 114.23917l3.6282654 3.1872253l-0.7307129 -4.7737503z" fill-rule="evenodd"></path></g></svg>

